<?xml version="1.0" encoding="UTF-8"?>
<svg version="1.1" xmlns="http://www.w3.org/2000/svg" width="647" height="112">
<path d="M0 0 C7.72342532 7.1405253 11.67008244 17.04972295 12.49609375 27.39453125 C12.73323265 38.4842623 10.37074681 48.22326044 2.625 56.4375 C-7.01101102 65.5193063 -16.6868866 68.84047583 -29.76953125 68.55859375 C-40.69252352 67.65669531 -50.74709595 62.26194017 -58.21875 54.296875 C-65.66734412 44.64410507 -67.73139583 33.85736585 -66.5078125 21.95703125 C-64.87902396 12.56656674 -59.14779017 4.19471855 -51.75 -1.6875 C-34.98748476 -12.53553052 -16.02303053 -12.45843563 0 0 Z M-26.75 -2.6875 C-26.42 -1.6975 -26.09 -0.7075 -25.75 0.3125 C-25.09 -0.0175 -24.43 -0.3475 -23.75 -0.6875 C-23.75 -1.3475 -23.75 -2.0075 -23.75 -2.6875 C-24.74 -2.6875 -25.73 -2.6875 -26.75 -2.6875 Z M-53.75 21.3125 C-53.42 22.6325 -53.09 23.9525 -52.75 25.3125 C-52.75 24.6525 -52.75 23.9925 -52.75 23.3125 C-52.09 22.9825 -51.43 22.6525 -50.75 22.3125 C-51.74 21.9825 -52.73 21.6525 -53.75 21.3125 Z M-43.75 28.3125 C-45.09850469 30.06240784 -46.47421113 31.79165785 -47.875 33.5 C-51.92597258 38.44871559 -53.2980825 40.73550999 -52.75 47.3125 C-51.13679279 50.36607079 -49.71939098 52.55083566 -47 54.6875 C-42.67615754 55.88856735 -38.86059458 56.17683873 -34.69921875 54.47265625 C-28.198985 50.72397776 -22.885104 45.14580921 -19.75 38.3125 C-21.03548409 36.97320495 -22.32858155 35.64121357 -23.625 34.3125 C-24.34429687 33.57 -25.06359375 32.8275 -25.8046875 32.0625 C-27.56170957 30.08956675 -27.56170957 30.08956675 -29.75 30.3125 C-29.75 29.6525 -29.75 28.9925 -29.75 28.3125 C-33.56770632 24.5456718 -33.56770632 24.5456718 -38.4375 22.6875 C-41.73573629 23.57891521 -42.06174541 25.39791036 -43.75 28.3125 Z M-5.75 31.3125 C-5.42 32.3025 -5.09 33.2925 -4.75 34.3125 C-4.09 34.3125 -3.43 34.3125 -2.75 34.3125 C-3.08 33.3225 -3.41 32.3325 -3.75 31.3125 C-4.41 31.3125 -5.07 31.3125 -5.75 31.3125 Z " fill="#FFFFFF" transform="translate(481.75,27.6875)"/>
<path d="M0 0 C3.0625 1.6875 3.0625 1.6875 5 3 C5.680625 2.38125 6.36125 1.7625 7.0625 1.125 C13.31625472 -3.39899278 20.50911056 -3.85219388 28 -3 C33.76738776 -1.3534464 38.24215636 1.24743305 42 6 C49.05693856 18.85370951 46.90341794 38.90060786 45 53 C43.2537612 54.7462388 41.00121676 54.13221151 38.67773438 54.13671875 C37.97970703 54.13285156 37.28167969 54.12898438 36.5625 54.125 C35.86833984 54.12886719 35.17417969 54.13273437 34.45898438 54.13671875 C29.25327988 54.12663994 29.25327988 54.12663994 27 53 C26.970271 51.58521362 26.970271 51.58521362 26.93994141 50.1418457 C26.86165234 46.62856966 26.77495302 43.11570736 26.68261719 39.6027832 C26.64443296 38.08496022 26.60956192 36.56704999 26.578125 35.04907227 C26.53224372 32.86182569 26.47428971 30.67517418 26.4140625 28.48828125 C26.3826416 27.17384033 26.3512207 25.85939941 26.31884766 24.50512695 C26.01916231 21.21065339 25.52989667 18.91536728 24 16 C20.94306678 14.47153339 18.37015453 14.76757555 15 15 C11.8149643 16.76015131 11.16703028 17.49890916 10 21 C9.87164761 23.33254739 9.79790267 25.66824447 9.75390625 28.00390625 C9.72098744 29.3977932 9.68777548 30.79167326 9.65429688 32.18554688 C9.60676627 34.38008181 9.56228475 36.57458493 9.52319336 38.76928711 C9.48357534 40.88944427 9.43203132 43.00905065 9.37890625 45.12890625 C9.34132202 47.03265015 9.34132202 47.03265015 9.30297852 48.97485352 C9 52 9 52 7 54 C4.45464859 54.19849071 2.04283241 54.27851775 -0.5 54.25 C-1.18964844 54.25773437 -1.87929688 54.26546875 -2.58984375 54.2734375 C-7.74666707 54.25333293 -7.74666707 54.25333293 -10 52 C-10.20883456 49.54172968 -10.301061 47.18684803 -10.30859375 44.7265625 C-10.33375717 43.24739195 -10.35915514 41.76822538 -10.38476562 40.2890625 C-10.41349432 37.95639097 -10.43750976 35.6237886 -10.45629883 33.29101562 C-10.4779799 31.03999645 -10.51742388 28.78979731 -10.55859375 26.5390625 C-10.55870956 25.84414703 -10.55882538 25.14923157 -10.5589447 24.43325806 C-10.62050441 21.41532206 -10.86843259 19.25050195 -12.28149414 16.56005859 C-14.10604792 14.60409045 -14.10604792 14.60409045 -17.9375 14.5 C-20.70533336 14.67298958 -21.97215029 14.98428991 -24.4375 16.375 C-28.52160688 23.23629955 -27.27366232 33.83111775 -27.5625 41.625 C-27.60568359 42.72457031 -27.64886719 43.82414062 -27.69335938 44.95703125 C-27.79826406 47.63792882 -27.90042726 50.31890001 -28 53 C-30.95388136 54.47694068 -33.65161882 54.20930797 -36.9375 54.25 C-38.80728516 54.28867188 -38.80728516 54.28867188 -40.71484375 54.328125 C-44 54 -44 54 -45.68304443 52.79812622 C-47.44573919 50.39140291 -47.36828616 48.87080082 -47.35644531 45.90185547 C-47.35944641 44.86423065 -47.36244751 43.82660583 -47.36553955 42.75753784 C-47.35319275 41.63872223 -47.34084595 40.51990662 -47.328125 39.3671875 C-47.32625183 38.21960968 -47.32437866 37.07203186 -47.32244873 35.88967896 C-47.3157237 33.46369522 -47.30180036 31.03772242 -47.28125 28.61181641 C-47.25006721 24.88303645 -47.24027749 21.15467871 -47.234375 17.42578125 C-47.22520654 15.07291147 -47.21483128 12.72004602 -47.203125 10.3671875 C-47.19887512 9.24432343 -47.19462524 8.12145935 -47.19024658 6.96456909 C-47.18063904 5.9332486 -47.17103149 4.9019281 -47.16113281 3.83935547 C-47.15430481 2.92685028 -47.14747681 2.01434509 -47.14044189 1.07418823 C-47 -1 -47 -1 -46 -2 C-43.13732433 -2.07325168 -40.299281 -2.09238205 -37.4375 -2.0625 C-36.63119141 -2.05798828 -35.82488281 -2.05347656 -34.99414062 -2.04882812 C-32.99606244 -2.03700518 -30.99802217 -2.01906914 -29 -2 C-28.67 -1.01 -28.34 -0.02 -28 1 C-27.19949219 0.566875 -27.19949219 0.566875 -26.3828125 0.125 C-17.26368486 -4.41878678 -9.26910218 -4.05067064 0 0 Z " fill="#1E2530" transform="translate(303,39)"/>
<path d="M0 0 C1.0829409 -0.00642769 1.0829409 -0.00642769 2.1877594 -0.01298523 C3.720133 -0.0187294 5.25253387 -0.01922813 6.78491211 -0.01489258 C9.08952913 -0.01177207 11.3928111 -0.0350491 13.69726562 -0.06054688 C25.89610026 -0.1143393 37.41048118 0.46821004 46.69140625 9.30078125 C52.41208227 15.32254548 53.11852025 21.2896053 52.9296875 29.33984375 C52.32608049 36.84040303 49.48157137 41.41382069 44.00390625 46.5390625 C35.83321599 52.76369309 26.18078772 53.48135029 16.25390625 53.36328125 C15.1565918 53.35651367 15.1565918 53.35651367 14.03710938 53.34960938 C12.25517206 53.33796273 10.47327762 53.32003316 8.69140625 53.30078125 C8.71460937 54.50476563 8.7378125 55.70875 8.76171875 56.94921875 C8.78047488 58.5247334 8.79867524 60.10025473 8.81640625 61.67578125 C8.84154297 62.866875 8.84154297 62.866875 8.8671875 64.08203125 C8.88476098 66.1557014 8.79475793 68.22961366 8.69140625 70.30078125 C6.13191626 72.86027124 4.4193343 72.56146856 0.92578125 72.57421875 C0.1884375 72.56648438 -0.54890625 72.55875 -1.30859375 72.55078125 C-2.0459375 72.55851562 -2.78328125 72.56625 -3.54296875 72.57421875 C-9.05527415 72.55410085 -9.05527415 72.55410085 -11.30859375 70.30078125 C-11.55583191 67.7915802 -11.55583191 67.7915802 -11.55151367 64.58520508 C-11.5545903 63.38668411 -11.55766693 62.18816315 -11.56083679 60.95332336 C-11.55365128 59.65130478 -11.54646576 58.34928619 -11.5390625 57.0078125 C-11.53787001 55.65980575 -11.53741768 54.31179815 -11.53767395 52.96379089 C-11.53610792 50.13327862 -11.52781415 47.3028926 -11.5144043 44.47241211 C-11.49749559 40.859011 -11.49358768 37.24574975 -11.49434948 33.63231373 C-11.49407621 30.84491155 -11.48856862 28.05753944 -11.48134804 25.27014732 C-11.47664957 23.29442587 -11.47489217 21.31869811 -11.47319031 19.3429718 C-11.40711795 6.76737352 -11.40711795 6.76737352 -10.30859375 2.30078125 C-6.72843529 -0.08599106 -4.13601797 -0.0054586 0 0 Z M8.69140625 17.30078125 C8.69140625 23.57078125 8.69140625 29.84078125 8.69140625 36.30078125 C12.99171875 36.42453125 12.99171875 36.42453125 17.37890625 36.55078125 C18.72021606 36.60540527 18.72021606 36.60540527 20.08862305 36.66113281 C24.1383347 36.71744819 26.19244477 36.61319698 29.7109375 34.41015625 C32.27678435 31.67730161 32.64684906 30.77308748 33.00390625 26.98828125 C32.64264683 22.72542014 31.67148571 21.28086071 28.69140625 18.30078125 C26.39486925 17.15251275 25.10827458 17.1851695 22.55859375 17.203125 C21.83269043 17.20562256 21.10678711 17.20812012 20.35888672 17.21069336 C19.43736816 17.21979736 18.51584961 17.22890137 17.56640625 17.23828125 C13.17328125 17.26921875 13.17328125 17.26921875 8.69140625 17.30078125 Z " fill="#1E252F" transform="translate(30.30859375,20.69921875)"/>
<path d="M0 0 C1.15371094 -0.01417969 2.30742188 -0.02835938 3.49609375 -0.04296875 C6.5625 0.1875 6.5625 0.1875 9.5625 2.1875 C12.40370234 1.83234971 14.84297752 1.09400749 17.5625 0.1875 C25.79041336 -0.45761917 33.64876055 -0.79502731 40.5625 4.1875 C48.40098332 10.94740802 51.53365447 17.39201657 52.8671875 27.49609375 C53.29437676 34.54471659 51.18288793 41.59856362 47.01953125 47.30078125 C41.7448919 52.93752399 35.01425716 56.70537182 27.265625 57.390625 C20.46287761 57.5206138 15.67176972 56.24213486 9.5625 53.1875 C9.57035522 54.08843384 9.57035522 54.08843384 9.57836914 55.00756836 C9.59908014 57.71336838 9.61214125 60.41915177 9.625 63.125 C9.63337891 64.07052734 9.64175781 65.01605469 9.65039062 65.99023438 C9.65522461 67.33891602 9.65522461 67.33891602 9.66015625 68.71484375 C9.66801147 69.96382446 9.66801147 69.96382446 9.67602539 71.23803711 C9.5625 73.1875 9.5625 73.1875 8.5625 74.1875 C5.88977424 74.45125583 3.24167584 74.65598457 0.5625 74.8125 C-0.18773437 74.8640625 -0.93796875 74.915625 -1.7109375 74.96875 C-3.61759649 75.08576517 -5.52780922 75.1414329 -7.4375 75.1875 C-9.35050481 73.27449519 -8.69148733 69.76716911 -8.75390625 67.15625 C-8.77477798 66.42509979 -8.79564972 65.69394958 -8.81715393 64.94064331 C-8.88387862 62.52304305 -8.94250718 60.10533638 -9 57.6875 C-9.02084656 56.86614563 -9.04169312 56.04479126 -9.06317139 55.19854736 C-9.37079369 42.98709885 -9.54166837 30.77775673 -9.5625 18.5625 C-9.5650882 17.85150146 -9.56767639 17.14050293 -9.57034302 16.40795898 C-9.57614313 14.40479355 -9.57343777 12.40160889 -9.5703125 10.3984375 C-9.56918457 9.26712402 -9.56805664 8.13581055 -9.56689453 6.97021484 C-9.4375 4.1875 -9.4375 4.1875 -8.4375 1.1875 C-5.60362485 -0.22943757 -3.15720627 0.0175987 0 0 Z M13.5625 18.1875 C10.35263603 21.65077429 9.24675387 24.50024899 8.9375 29.125 C9.15540632 33.77835427 10.35788171 36.60788171 13.65234375 39.90234375 C17.11347595 42.23099916 20.46799494 42.56906678 24.5625 42.1875 C28.10845541 41.00551486 29.93873302 39.87364368 32.4375 37.125 C34.45303021 31.86222668 34.5250357 26.4494589 32.3125 21.25 C29.42636837 17.84848773 27.57436658 16.44983578 23.1875 15.3125 C18.90820193 15.164938 17.07483792 15.76788943 13.5625 18.1875 Z " fill="#FFFFFF" transform="translate(510.4375,35.8125)"/>
<path d="M0 0 C0.69351563 -0.00386719 1.38703125 -0.00773437 2.1015625 -0.01171875 C7.24833354 -0.00166646 7.24833354 -0.00166646 8.375 1.125 C8.53186249 2.68448542 8.62576639 4.25042668 8.69140625 5.81640625 C8.73330078 6.76064453 8.77519531 7.70488281 8.81835938 8.67773438 C8.85767578 9.67095703 8.89699219 10.66417969 8.9375 11.6875 C8.98068359 12.68458984 9.02386719 13.68167969 9.06835938 14.70898438 C9.17480298 17.1808415 9.27681928 19.6528031 9.375 22.125 C10.56222656 21.63902344 11.74945313 21.15304688 12.97265625 20.65234375 C20.21192198 17.94936598 28.15235814 17.86817795 35.375 20.75 C40.87318584 23.65014198 44.01329364 27.47415153 45.98828125 33.3515625 C47.834325 39.7624752 47.79177487 46.17952893 47.71118164 52.79443359 C47.68738074 54.88547807 47.69066817 56.97525858 47.69726562 59.06640625 C47.67216332 65.13728819 47.57756282 70.37499026 45.375 76.125 C42.91659395 76.15191685 40.45848118 76.17179802 38 76.1875 C37.30132812 76.19587891 36.60265625 76.20425781 35.8828125 76.21289062 C30.6015625 76.23828125 30.6015625 76.23828125 28.375 75.125 C28.34994385 74.25286865 28.3248877 73.3807373 28.29907227 72.48217773 C28.20342637 69.21872237 28.10422644 65.95541392 28.00268555 62.69213867 C27.95961342 61.28495443 27.91792136 59.87772718 27.87768555 58.47045898 C27.8193043 56.43720592 27.75581315 54.40416383 27.69140625 52.37109375 C27.63641968 50.54082642 27.63641968 50.54082642 27.58032227 48.67358398 C27.37418914 45.11098589 26.93031685 41.64859412 26.375 38.125 C22.33322482 36.77774161 18.60120549 36.55946798 14.375 37.125 C11.34284325 39.32331364 10.55845602 40.57463194 9.375 44.125 C9.22320986 46.4805448 9.12600711 48.83975123 9.05859375 51.19921875 C9.03781265 51.8830513 9.01703156 52.56688385 8.99562073 53.2714386 C8.93033846 55.4516921 8.87133983 57.63206405 8.8125 59.8125 C8.76929447 61.29232986 8.72567953 62.77214783 8.68164062 64.25195312 C8.57467917 67.87617622 8.47335177 71.50053189 8.375 75.125 C4.41217013 75.81351593 0.65083789 76.28469725 -3.375 76.3125 C-4.31859375 76.32667969 -5.2621875 76.34085937 -6.234375 76.35546875 C-8.625 76.125 -8.625 76.125 -10.625 74.125 C-10.86550903 71.11312866 -10.86550903 71.11312866 -10.85205078 67.19677734 C-10.85234283 66.48447464 -10.85263489 65.77217194 -10.85293579 65.0382843 C-10.85154016 62.67904566 -10.83596827 60.32012111 -10.8203125 57.9609375 C-10.81658319 56.32711968 -10.81373583 54.69329962 -10.81173706 53.05947876 C-10.8040941 48.75547124 -10.78443999 44.45159832 -10.7623291 40.14764404 C-10.7418849 35.75730205 -10.7327384 31.36693835 -10.72265625 26.9765625 C-10.70119466 18.35931318 -10.66705081 9.74217332 -10.625 1.125 C-7.03023628 -0.07325457 -3.73950601 -0.02108744 0 0 Z " fill="#1E252F" transform="translate(98.625,16.875)"/>
<path d="M0 0 C5.30815634 4.12856604 7.91252193 9.73756579 10 16 C10.08507079 18.7315956 10.11591565 21.43691443 10.09765625 24.16796875 C10.0962413 24.96278152 10.09482635 25.7575943 10.09336853 26.57649231 C10.08777378 29.11353325 10.07522228 31.65048575 10.0625 34.1875 C10.05748432 35.90820185 10.05292153 37.62890508 10.04882812 39.34960938 C10.03780607 43.5664403 10.02054506 47.78320516 10 52 C6.65480099 53.79157846 4.38377421 54.27119986 0.5625 54.25 C-0.36433594 54.25515625 -1.29117188 54.2603125 -2.24609375 54.265625 C-5.15951361 53.98461429 -7.30752313 53.09625549 -10 52 C-11.68834592 52.60968047 -13.35202764 53.28837557 -15 54 C-22.67977314 55.66495082 -29.31402392 54.8777614 -36.3125 51.3125 C-40.30234345 47.87937889 -42.61509808 44.72891137 -43.34765625 39.53515625 C-43.52819421 34.3152543 -43.03919375 30.40159095 -40 26 C-35.24352953 21.24352953 -29.91520372 19.90717535 -23.37890625 19.8046875 C-21.77331993 19.81779433 -20.16778755 19.84136787 -18.5625 19.875 C-17.32209961 19.88853516 -17.32209961 19.88853516 -16.05664062 19.90234375 C-14.03763292 19.92568488 -12.01877644 19.96154712 -10 20 C-11.27685891 16.06036164 -11.27685891 16.06036164 -14.4375 13.5625 C-21.40782237 12.46192278 -28.47256212 14.53015864 -35 17 C-39.83061481 9.31493099 -39.83061481 9.31493099 -40.1875 4.4375 C-38.47033337 0.91278954 -35.95139736 0.24184724 -32.421875 -1.203125 C-22.8269129 -4.36017704 -9.04314798 -4.98377933 0 0 Z M-25 35 C-24.67 36.65 -24.34 38.3 -24 40 C-17.26428781 41.27631232 -17.26428781 41.27631232 -11 39 C-9.23605791 36.39608549 -9 35.19219704 -9 32 C-10.91595968 31.91866209 -12.83291932 31.86065633 -14.75 31.8125 C-15.81734375 31.77769531 -16.8846875 31.74289063 -17.984375 31.70703125 C-21.30027855 32.02917214 -22.59016673 32.77148914 -25 35 Z " fill="#1F2631" transform="translate(195,39)"/>
<path d="M0 0 C6.64099399 9.25714313 6.60903345 18.41297917 6.41918945 29.38256836 C6.37456025 31.96292527 6.35765871 34.5423492 6.34570312 37.12304688 C6.3322994 38.76043027 6.31738211 40.39780214 6.30078125 42.03515625 C6.29339432 42.80795425 6.28600739 43.58075226 6.27839661 44.37696838 C6.18092768 49.75657232 6.18092768 49.75657232 5.0625 50.875 C3.128081 51.00083966 1.18847237 51.05078009 -0.75 51.0625 C-1.80832031 51.07667969 -2.86664063 51.09085938 -3.95703125 51.10546875 C-6.89299807 50.87844117 -8.41308358 50.27871137 -10.9375 48.875 C-13.01111988 49.12256445 -13.01111988 49.12256445 -14.9375 49.875 C-21.52371782 52.07040594 -31.13488458 52.19937525 -37.5625 49.3125 C-42.80373191 46.05814032 -45.36613353 41.92519732 -47 36.0625 C-47.33349454 30.87817577 -45.65701714 26.24013405 -42.9375 21.875 C-38.48055484 17.94422198 -33.18092803 16.73822008 -27.390625 16.77734375 C-26.54628906 16.78056641 -25.70195312 16.78378906 -24.83203125 16.78710938 C-23.95933594 16.79548828 -23.08664062 16.80386719 -22.1875 16.8125 C-21.29933594 16.81701172 -20.41117187 16.82152344 -19.49609375 16.82617188 C-17.30982671 16.837926 -15.12369821 16.85435751 -12.9375 16.875 C-14.05604586 13.14885847 -14.05604586 13.14885847 -16.9375 10.875 C-24.00758982 10.36720349 -29.70383486 10.19873594 -35.9375 13.875 C-37.9453125 13.765625 -37.9453125 13.765625 -39.9375 12.875 C-41.23828125 10.73046875 -41.23828125 10.73046875 -42.25 8.0625 C-42.59675781 7.18980469 -42.94351562 6.31710938 -43.30078125 5.41796875 C-43.98711491 2.67684476 -44.15490112 1.41947801 -42.9375 -1.125 C-41.08203125 -2.35546875 -41.08203125 -2.35546875 -38.75 -3.3125 C-37.99332031 -3.63605469 -37.23664063 -3.95960937 -36.45703125 -4.29296875 C-24.4176645 -8.26875963 -10.40152677 -7.52450873 0 0 Z M-27.9375 30.875 C-28.1877157 33.95865871 -28.1877157 33.95865871 -27.9375 36.875 C-24.72793186 38.47978407 -21.41916765 38.3543118 -17.9375 37.875 C-14.86864486 36.37158542 -14.86864486 36.37158542 -12.9375 33.875 C-12.77055528 31.27840394 -12.77055528 31.27840394 -12.9375 28.875 C-14.87469378 28.82093878 -16.81231921 28.78217975 -18.75 28.75 C-19.82894531 28.72679687 -20.90789062 28.70359375 -22.01953125 28.6796875 C-25.13152868 28.64476283 -25.13152868 28.64476283 -27.9375 30.875 Z " fill="#1F2630" transform="translate(401.9375,42.125)"/>
<path d="M0 0 C0.81640625 1.7734375 0.81640625 1.7734375 1 4 C0.00390625 6.578125 0.00390625 6.578125 -1.4375 9.25 C-1.91058594 10.14203125 -2.38367188 11.0340625 -2.87109375 11.953125 C-3.24363281 12.62859375 -3.61617187 13.3040625 -4 14 C-5.2375 13.67 -6.475 13.34 -7.75 13 C-14.60478972 11.4682641 -22.20117088 10.98134527 -29 13 C-26.69957073 16.19750786 -24.09625565 16.56903512 -20.34179688 17.18359375 C-19.63087891 17.28800781 -18.91996094 17.39242187 -18.1875 17.5 C-10.88399785 18.59047682 -4.78115021 20.04426677 -0.046875 26.26953125 C2.23020692 30.03351368 3.38360517 33.68093237 2.65625 38.078125 C1.04633151 43.09953743 -1.5680596 47.08472773 -6 50 C-16.3286501 54.56182046 -29.34290697 54.52318681 -40 51 C-45.43541788 48.82583285 -45.43541788 48.82583285 -47.2578125 46.16015625 C-48 44 -48 44 -47.49609375 41.89453125 C-47.14675781 41.20746094 -46.79742188 40.52039063 -46.4375 39.8125 C-46.10621094 39.11769531 -45.77492188 38.42289063 -45.43359375 37.70703125 C-44 36 -44 36 -41.67578125 35.171875 C-38.64670574 34.97730665 -36.62542803 35.49163552 -33.75 36.4375 C-27.67263344 38.236072 -22.09056875 39.03018958 -16 37 C-15.67 36.01 -15.34 35.02 -15 34 C-15.57443848 33.89453857 -16.14887695 33.78907715 -16.74072266 33.68041992 C-19.37064593 33.19211158 -21.99773987 32.68993153 -24.625 32.1875 C-25.52863281 32.02185547 -26.43226563 31.85621094 -27.36328125 31.68554688 C-35.17704089 30.17412622 -40.56033573 28.06134018 -46 22 C-47.85979392 18.28041216 -47.4381614 14.05907851 -47 10 C-45.32015234 5.15217878 -42.30088573 1.73692728 -38 -1 C-26.6512374 -6.44252486 -10.9200672 -6.7600416 0 0 Z " fill="#FFFFFF" transform="translate(613,40)"/>
<path d="M0 0 C2 2 2 2 2.23046875 5.22265625 C2.21628906 6.48980469 2.20210937 7.75695313 2.1875 9.0625 C2.18105469 10.33222656 2.17460937 11.60195313 2.16796875 12.91015625 C2 16 2 16 1 17 C-0.76697115 17.29498196 -2.53879951 17.56112788 -4.3125 17.8125 C-7.9112959 18.43330396 -9.68544369 18.76033805 -12.625 21 C-15.13083003 24.64484368 -15.14539612 27.01015214 -15.2109375 31.43359375 C-15.25347656 33.3662207 -15.25347656 33.3662207 -15.296875 35.33789062 C-15.3381624 37.38972672 -15.37504902 39.44132235 -15.40136719 41.4934082 C-15.42896701 43.47369577 -15.4759434 45.45368342 -15.5234375 47.43359375 C-15.54325684 48.62009521 -15.56307617 49.80659668 -15.58349609 51.02905273 C-16 54 -16 54 -17.32446289 55.88989258 C-20.10043646 57.72908125 -22.80122038 57.31745149 -26.0625 57.25 C-27.31160156 57.23453125 -28.56070313 57.2190625 -29.84765625 57.203125 C-33 57 -33 57 -35 56 C-35 37.85 -35 19.7 -35 1 C-29.39 1 -23.78 1 -18 1 C-17.67 1.99 -17.34 2.98 -17 4 C-15.948125 3.525625 -14.89625 3.05125 -13.8125 2.5625 C-9.25496948 0.61844272 -4.98925182 -0.40453393 0 0 Z " fill="#202731" transform="translate(250,36)"/>
<path d="M0 0 C2.25 2.625 2.25 2.625 4 5 C1.0098145 6.72327319 -1.12033978 7.25156728 -4.5625 7.1875 C-5.70912109 7.17783203 -5.70912109 7.17783203 -6.87890625 7.16796875 C-9 7 -9 7 -12 6 C-11.67 4.35 -11.34 2.7 -11 1 C-13.84375 -0.28125 -13.84375 -0.28125 -16.0625 0.6875 C-18.34252436 2.23203263 -18.91131193 3.51157012 -20 6 C-20.66 6.66 -21.32 7.32 -22 8 C-21.94431866 10.28235217 -21.94431866 10.28235217 -21.5 12.8125 C-21.00918045 16.88513368 -20.96106422 19.3299156 -23 23 C-23.53625 24.093125 -24.0725 25.18625 -24.625 26.3125 C-25.07875 27.199375 -25.5325 28.08625 -26 29 C-27.65 29 -29.3 29 -31 29 C-31.0825 29.5775 -31.165 30.155 -31.25 30.75 C-32.51947379 34.55842138 -35.04960597 36.47728328 -38.5 38.375 C-41.77308881 40.50250773 -43.20423236 42.54148454 -45 46 C-45.07905064 48.33199388 -45.08798769 50.66832622 -45 53 C-45.66 53.99 -46.32 54.98 -47 56 C-49.359375 55.80078125 -49.359375 55.80078125 -52 55 C-53.328125 52.85546875 -53.328125 52.85546875 -54.25 50.1875 C-54.56453125 49.31480469 -54.8790625 48.44210938 -55.203125 47.54296875 C-58.18146033 38.03857513 -58.160023 27.55225216 -53.77734375 18.46484375 C-47.81326566 7.92035368 -39.62818439 0.77130304 -28 -3 C-18.85214225 -5.07905858 -8.27791644 -4.81874554 0 0 Z M-44 27 C-43.67 28.32 -43.34 29.64 -43 31 C-43 30.34 -43 29.68 -43 29 C-42.34 28.67 -41.68 28.34 -41 28 C-41.99 27.67 -42.98 27.34 -44 27 Z " fill="#FFFFFF" transform="translate(472,22)"/>
<path d="M0 0 C0.33 0.66 0.66 1.32 1 2 C2.34189957 2.67094978 3.69668689 3.31667586 5.0625 3.9375 C7 5 7 5 8 7 C8.06909046 9.27566699 7.99748396 11.5329524 7.9375 13.80859375 C7.8994813 16.18019941 7.8994813 16.18019941 9 19 C8.34 19 7.68 19 7 19 C7 19.66 7 20.32 7 21 C5 23 5 23 3 24 C3 24.66 3 25.32 3 26 C2.01 26 1.02 26 0 26 C-0.268125 26.598125 -0.53625 27.19625 -0.8125 27.8125 C-1.99199336 29.98525092 -3.229192 31.30618365 -5 33 C-5.33 33.66 -5.66 34.32 -6 35 C-8.125 36.0625 -8.125 36.0625 -11 36 C-13.02348459 34.36815759 -14.71279765 32.59684164 -16.44921875 30.6640625 C-17.9149951 28.89690262 -17.9149951 28.89690262 -20 28 C-20.35412344 26.67203709 -20.68521554 25.33783393 -21 24 C-21.66 23.01 -22.32 22.02 -23 21 C-22.35350235 16.32460392 -20.22149058 12.39801061 -17 9 C-5.72881356 2 -5.72881356 2 -0.6 2 C0 1.34 0 0.68 0 0 Z " fill="#FFFFFF" transform="translate(472,30)"/>
<path d="M0 0 C-0.60323234 3.37810112 -1.90192055 5.32255812 -4 8 C-2.79601562 7.90460938 -1.59203125 7.80921875 -0.3515625 7.7109375 C1.22391877 7.59840312 2.79944195 7.48645427 4.375 7.375 C5.56609375 7.27832031 5.56609375 7.27832031 6.78125 7.1796875 C8.85028224 7.03941413 10.92625536 7.01241763 13 7 C13.66 7.66 14.32 8.32 15 9 C17.88214887 8.11785113 17.88214887 8.11785113 20 7 C19.23232186 16.21213774 15.54637984 21.91741664 9 28.3359375 C7.07352206 29.93882735 5.28385153 30.99061919 3 32 C2.67 31.34 2.34 30.68 2 30 C2.99 29.34 3.98 28.68 5 28 C5 27.34 5 26.68 5 26 C3.02 26 1.04 26 -1 26 C-0.34 24.02 0.32 22.04 1 20 C0.34 19.67 -0.32 19.34 -1 19 C-1 18.34 -1 17.68 -1 17 C-1.66 17 -2.32 17 -3 17 C-2.67 15.35 -2.34 13.7 -2 12 C-8.92088947 11.39290443 -11.67113839 12.55928199 -17 17 C-15.32127275 13.03209924 -12.91722926 10.13068506 -10 7 C-9.01 7 -8.02 7 -7 7 C-6.731875 6.21625 -6.46375 5.4325 -6.1875 4.625 C-4.80518115 1.56934781 -3.53283878 0 0 0 Z M5 9 C5 9.66 5 10.32 5 11 C7.64 11.66 10.28 12.32 13 13 C12.67 11.68 12.34 10.36 12 9 C12 9.66 12 10.32 12 11 C11.01 11 10.02 11 9 11 C9 10.34 9 9.68 9 9 C7.68 9 6.36 9 5 9 Z " fill="#FFFFFF" transform="translate(473,58)"/>
<path d="M0 0 C0.5775 0.37125 1.155 0.7425 1.75 1.125 C1.75 1.785 1.75 2.445 1.75 3.125 C1.09 3.125 0.43 3.125 -0.25 3.125 C0.89510759 4.7318338 0.89510759 4.7318338 2.75 6.125 C5.49243563 6.48770484 5.49243563 6.48770484 8.4375 6.3125 C9.92830078 6.27189453 9.92830078 6.27189453 11.44921875 6.23046875 C12.20847656 6.19566406 12.96773438 6.16085938 13.75 6.125 C13.75 6.785 13.75 7.445 13.75 8.125 C14.471875 8.29 15.19375 8.455 15.9375 8.625 C19.99885328 10.79105508 21.96074233 13.92866924 23.75 18.125 C23.5625 21.125 23.5625 21.125 22.75 23.125 C20.75 22.125 20.75 22.125 19.75 19.125 C20.245 17.64 20.245 17.64 20.75 16.125 C19.44975964 15.47487982 18.13737121 14.84832894 16.8125 14.25 C14.70731005 13.10171457 13.39776645 11.84318382 11.75 10.125 C6.49158397 12.13647176 1.53910297 14.13181064 -3.25 17.125 C-3.91 17.125 -4.57 17.125 -5.25 17.125 C-5.518125 18.053125 -5.78625 18.98125 -6.0625 19.9375 C-7.25 23.125 -7.25 23.125 -8.9375 24.6875 C-9.370625 25.161875 -9.80375 25.63625 -10.25 26.125 C-10.00546876 29.46692692 -9.64456443 30.73043557 -7.25 33.125 C-11.25 33.125 -11.25 33.125 -13 31.9375 C-14.6700394 29.51594287 -14.61962413 28.00806818 -14.25 25.125 C-13.59 24.465 -12.93 23.805 -12.25 23.125 C-9.90921796 17.21144538 -10.32313942 12.34999605 -11.25 6.125 C-10.26 5.795 -9.27 5.465 -8.25 5.125 C-7.940625 4.485625 -7.63125 3.84625 -7.3125 3.1875 C-6.25 1.125 -6.25 1.125 -4.375 -0.25 C-2.25 -0.875 -2.25 -0.875 0 0 Z M-5.25 3.125 C-4.92 4.115 -4.59 5.105 -4.25 6.125 C-3.59 5.795 -2.93 5.465 -2.25 5.125 C-2.25 4.465 -2.25 3.805 -2.25 3.125 C-3.24 3.125 -4.23 3.125 -5.25 3.125 Z " fill="#FFFFFF" transform="translate(460.25,21.875)"/>
<path d="M0 0 C1.98 0.99 1.98 0.99 4 2 C3.96970703 2.92635254 3.93941406 3.85270508 3.90820312 4.80712891 C3.79458969 8.31472538 3.68302599 11.8223756 3.57275391 15.33007812 C3.52504511 16.83498631 3.47656936 18.33987042 3.42724609 19.84472656 C2.83631827 34.4232429 2.83631827 34.4232429 3 49 C3.33 49.33 3.66 49.66 4 50 C3.979375 51.093125 3.95875 52.18625 3.9375 53.3125 C3.87560242 57.59478132 3.87560242 57.59478132 6 61 C9.56206661 61.81870185 9.56206661 61.81870185 13 62 C13 61.34 13 60.68 13 60 C14.32 60 15.64 60 17 60 C17.19561869 57.9174133 17.38119313 55.83388144 17.5625 53.75 C17.66691406 52.58984375 17.77132812 51.4296875 17.87890625 50.234375 C18.15064043 47.12677368 18.15064043 47.12677368 17.40234375 44.703125 C17.20318359 43.86007813 17.20318359 43.86007813 17 43 C19 41 19 41 22.1171875 40.734375 C23.97730469 40.74210937 23.97730469 40.74210937 25.875 40.75 C27.10992187 40.74484375 28.34484375 40.7396875 29.6171875 40.734375 C32.72188334 40.97816174 34.41039696 41.36035184 37 43 C36 44 36 44 32.40234375 44.09765625 C30.91403133 44.0909822 29.42573568 44.07902183 27.9375 44.0625 C26.79958008 44.05573242 26.79958008 44.05573242 25.63867188 44.04882812 C23.75908129 44.0370068 21.87953101 44.01907078 20 44 C20.02320312 45.20398438 20.04640625 46.40796875 20.0703125 47.6484375 C20.08906863 49.22395215 20.10726899 50.79947348 20.125 52.375 C20.15013672 53.56609375 20.15013672 53.56609375 20.17578125 54.78125 C20.19335473 56.85492015 20.10335168 58.92883241 20 61 C17.44051001 63.55948999 15.72792805 63.26068731 12.234375 63.2734375 C11.49703125 63.26570313 10.7596875 63.25796875 10 63.25 C9.26265625 63.25773437 8.5253125 63.26546875 7.765625 63.2734375 C2.2533196 63.2533196 2.2533196 63.2533196 0 61 C-0.24050903 58.44369507 -0.24050903 58.44369507 -0.22705078 55.17333984 C-0.22689972 53.95222504 -0.22674866 52.73111023 -0.22659302 51.47299194 C-0.21637903 50.13563882 -0.20594702 48.79828735 -0.1953125 47.4609375 C-0.1915828 46.09616299 -0.18873563 44.73138581 -0.18673706 43.36660767 C-0.17909714 39.77279277 -0.15944572 36.17913927 -0.1373291 32.58538818 C-0.11687832 28.91892683 -0.107737 25.25243943 -0.09765625 21.5859375 C-0.07620003 14.39055138 -0.04205992 7.1952983 0 0 Z " fill="#0B0E1C" transform="translate(19,30)"/>
<path d="M0 0 C0.99 0.33 1.98 0.66 3 1 C3 24.43 3 47.86 3 72 C2.01 72 1.02 72 0 72 C0 48.24 0 24.48 0 0 Z " fill="#303741" transform="translate(88,19)"/>
<path d="M0 0 C-0.33 1.65 -0.66 3.3 -1 5 C-0.34 5 0.32 5 1 5 C1 5.66 1 6.32 1 7 C1.99 7.33 2.98 7.66 4 8 C4 11 4 11 2.5 12.6875 C2.005 13.120625 1.51 13.55375 1 14 C4.465 13.505 4.465 13.505 8 13 C7.38722388 15.96175123 6.74627478 17.38058783 5 20 C2.9765625 20.9140625 2.9765625 20.9140625 0.625 21.625 C-0.14585937 21.86476563 -0.91671875 22.10453125 -1.7109375 22.3515625 C-3.79901242 22.94306495 -5.89079459 23.48955303 -8 24 C-8 23.01 -8 22.02 -8 21 C-6.68 20.67 -5.36 20.34 -4 20 C-4 18.68 -4 17.36 -4 16 C-4.66 16.66 -5.32 17.32 -6 18 C-5.67 14.37 -5.34 10.74 -5 7 C-5.66 7 -6.32 7 -7 7 C-7.33 7.66 -7.66 8.32 -8 9 C-8.8125 7.3125 -8.8125 7.3125 -9 5 C-5.02272727 0 -5.02272727 0 0 0 Z " fill="#FFFFFF" transform="translate(471,70)"/>
<path d="M0 0 C5.61 0 11.22 0 17 0 C17 0.33 17 0.66 17 1 C12.05 1.33 7.1 1.66 2 2 C2 18.5 2 35 2 52 C3.485 51.505 3.485 51.505 5 51 C5 51.66 5 52.32 5 53 C9.56288469 53.21222719 11.55007426 52.77997029 16 51 C16.33 45.72 16.66 40.44 17 35 C19.40975706 38.61463559 19.33239432 41.3221926 19.3125 45.5 C19.32861328 46.17675781 19.34472656 46.85351562 19.36132812 47.55078125 C19.36406146 50.32237839 19.27608404 52.49984776 17.921875 54.953125 C14.93830739 56.57832037 12.29953751 56.31953542 8.9375 56.25 C7.68839844 56.23453125 6.43929687 56.2190625 5.15234375 56.203125 C2 56 2 56 0 55 C0 36.85 0 18.7 0 0 Z " fill="#1B1E27" transform="translate(215,37)"/>
<path d="M0 0 C3.23585033 3.23585033 3.98945574 7.62097487 5 12 C5.66 12 6.32 12 7 12 C7 12.66 7 13.32 7 14 C14.58205148 17.02939754 21.97960339 17.98879753 30 16 C31.35673046 14.69048177 32.69289774 13.35905821 34 12 C35.32 12 36.64 12 38 12 C38.66 13.32 39.32 14.64 40 16 C40.62648438 16 41.25296875 16 41.8984375 16 C44.93229167 16 47.96614583 16 51 16 C51.33 11.38 51.66 6.76 52 2 C52.33 2 52.66 2 53 2 C53.02684679 4.64590014 53.04676357 7.29153096 53.0625 9.9375 C53.07087891 10.69224609 53.07925781 11.44699219 53.08789062 12.22460938 C53.09652441 14.14994313 53.05224333 16.07535581 53 18 C51.20938728 19.79061272 48.60322258 19.17289466 46.1875 19.1875 C45.12917969 19.20167969 44.07085937 19.21585938 42.98046875 19.23046875 C40.04450193 19.00344117 38.52441642 18.40371137 36 17 C33.92638012 17.24756445 33.92638012 17.24756445 32 18 C25.41378218 20.19540594 15.80261542 20.32437525 9.375 17.4375 C4.91308538 14.66703014 1.68925754 10.93706013 0.4765625 5.76953125 C0.22595983 3.85614602 0.10142418 1.92705939 0 0 Z " fill="#13171F" transform="translate(355,74)"/>
<path d="M0 0 C0.99 0.33 1.98 0.66 3 1 C1.73046875 2.49739583 0.4609375 3.99479167 -0.80859375 5.4921875 C-3.51109208 8.9123985 -3.35679318 11.71848182 -3 16 C-1.1353694 19.3832553 -1.1353694 19.3832553 1 22 C0.67 22.66 0.34 23.32 0 24 C-0.99 23.34 -1.98 22.68 -3 22 C-3 22.66 -3 23.32 -3 24 C-1.68 24.33 -0.36 24.66 1 25 C1 25.66 1 26.32 1 27 C1.66 27.33 2.32 27.66 3 28 C4.125 30.0625 4.125 30.0625 5 32 C0.39627036 31.5123518 -1.8262207 29.79452216 -5.1875 26.6875 C-6.04730469 25.90761719 -6.90710938 25.12773438 -7.79296875 24.32421875 C-9.76873179 22.24354794 -10.92329908 20.62859386 -12 18 C-11.01 17.67 -10.02 17.34 -9 17 C-8.34 16.67 -7.68 16.34 -7 16 C-7.144375 14.845 -7.28875 13.69 -7.4375 12.5 C-7.50097077 7.42233819 -4.92902977 4.9743958 -1.53125 1.46875 C-1.0259375 0.9840625 -0.520625 0.499375 0 0 Z " fill="#FFFFFF" transform="translate(433,59)"/>
<path d="M0 0 C0.928125 0.5259375 0.928125 0.5259375 1.875 1.0625 C2.57625 1.371875 3.2775 1.68125 4 2 C4.66 1.67 5.32 1.34 6 1 C8.3828125 1.33984375 8.3828125 1.33984375 11.125 1.9375 C12.03507812 2.13214844 12.94515625 2.32679687 13.8828125 2.52734375 C14.58148438 2.68332031 15.28015625 2.83929688 16 3 C16 3.99 16 4.98 16 6 C16.66 6.66 17.32 7.32 18 8 C18 8.99 18 9.98 18 11 C20.31 11.66 22.62 12.32 25 13 C25 13.33 25 13.66 25 14 C18.82769666 15.18588236 13.47889113 15.51830754 8 12 C6.5625 9.5 6.5625 9.5 6 7 C5.67 6.01 5.34 5.02 5 4 C3.35 4 1.7 4 0 4 C-0.33 3.34 -0.66 2.68 -1 2 C-0.67 1.34 -0.34 0.68 0 0 Z " fill="#FFFFFF" transform="translate(429,80)"/>
<path d="M0 0 C7.30110194 -0.26549462 14.55373828 0.23968067 21 4 C23.25 6.625 23.25 6.625 25 9 C22.0098145 10.72327319 19.87966022 11.25156728 16.4375 11.1875 C15.67308594 11.18105469 14.90867187 11.17460937 14.12109375 11.16796875 C12 11 12 11 9 10 C9.33 8.35 9.66 6.7 10 5 C7.69 4.67 5.38 4.34 3 4 C2.67 3.01 2.34 2.02 2 1 C1.34 0.67 0.68 0.34 0 0 Z " fill="#FFFFFF" transform="translate(451,18)"/>
<path d="M0 0 C0.99 0.33 1.98 0.66 3 1 C3.33 10.9 3.66 20.8 4 31 C6.50139602 32.25069801 8.27392691 32.13302467 11.0625 32.125 C11.96097656 32.12757812 12.85945313 32.13015625 13.78515625 32.1328125 C15.97378893 32.24738223 15.97378893 32.24738223 17 31 C17.23659614 27.57498928 17.39673972 24.15719432 17.51757812 20.7265625 C17.60910491 18.81313467 17.79739852 16.90487161 18 15 C18.66 14.67 19.32 14.34 20 14 C19.86177801 17.14621682 19.71314916 20.29185566 19.5625 23.4375 C19.52318359 24.33533203 19.48386719 25.23316406 19.44335938 26.15820312 C19.40146484 27.01220703 19.35957031 27.86621094 19.31640625 28.74609375 C19.27974854 29.53685303 19.24309082 30.3276123 19.20532227 31.14233398 C19 33 19 33 18 34 C15.50941086 34.09997642 13.05272605 34.13879627 10.5625 34.125 C9.52125977 34.13080078 9.52125977 34.13080078 8.45898438 34.13671875 C3.25327988 34.12663994 3.25327988 34.12663994 1 33 C0.67 22.11 0.34 11.22 0 0 Z " fill="#191C25" transform="translate(329,59)"/>
<path d="M0 0 C-0.6594531 3.69293736 -1.52929434 4.70572579 -4 8 C4.415 7.505 4.415 7.505 13 7 C12.67 8.32 12.34 9.64 12 11 C11.01 11 10.02 11 9 11 C9 10.34 9 9.68 9 9 C7.68 9 6.36 9 5 9 C5 9.66 5 10.32 5 11 C5.99 10.67 6.98 10.34 8 10 C8 10.66 8 11.32 8 12 C7.13117188 11.90460938 6.26234375 11.80921875 5.3671875 11.7109375 C4.21476562 11.60007812 3.06234375 11.48921875 1.875 11.375 C0.73804688 11.25898437 -0.39890625 11.14296875 -1.5703125 11.0234375 C-7.85377047 10.98049815 -11.97946543 13.41390388 -17 17 C-15.32127275 13.03209924 -12.91722926 10.13068506 -10 7 C-9.01 7 -8.02 7 -7 7 C-6.731875 6.21625 -6.46375 5.4325 -6.1875 4.625 C-4.80518115 1.56934781 -3.53283878 0 0 0 Z " fill="#FFFFFF" transform="translate(473,58)"/>
<path d="M0 0 C4.9276483 4.39492957 7.62725635 8.29298776 8.28515625 14.8359375 C8.54542224 23.82077197 7.39503883 29.7520427 1.1875 36.375 C-1.985805 39.36647052 -4.63478281 41.12695656 -9 42 C-9.33 41.34 -9.66 40.68 -10 40 C-4.25 37 -4.25 37 -2 37 C-1.938125 36.278125 -1.87625 35.55625 -1.8125 34.8125 C-0.75772983 31.1613725 1.34194111 29.65805889 4 27 C6.57169799 19.68055187 5.05365394 12.81199726 2 6 C1.34 5.34 0.68 4.68 0 4 C0 2.68 0 1.36 0 0 Z " fill="#0F141D" transform="translate(75,29)"/>
<path d="M0 0 C0.33 0 0.66 0 1 0 C1.33 6.27 1.66 12.54 2 19 C2.33 19 2.66 19 3 19 C3.33 32.86 3.66 46.72 4 61 C3.01 61 2.02 61 1 61 C0.38091851 40.66251438 -0.18115105 20.34930113 0 0 Z " fill="#FFFFFF" transform="translate(501,49)"/>
<path d="M0 0 C2.22705078 5.16455078 C2.22673389 6.50817963 2.21542181 7.8518341 2.1953125 9.1953125 C2.1924826 9.90275604 2.18965271 10.61019958 2.18673706 11.33908081 C2.17553137 13.6012251 2.15042679 15.86297515 2.125 18.125 C2.11497067 19.65754637 2.10584474 21.19009894 2.09765625 22.72265625 C2.07559086 26.48192301 2.04105896 30.24089464 2 34 C0.515 34.495 0.515 34.495 -1 35 C-1 33.68 -1 32.36 -1 31 C-1.01142854 28.77864432 -1.02318743 26.55729033 -1.03515625 24.3359375 C-1.04207438 22.36328237 -1.04896979 20.390627 -1.05493164 18.41796875 C-1.05999051 17.05240111 -1.06683577 15.68683896 -1.07543945 14.32128906 C-1.08753548 12.34702837 -1.0927007 10.37272902 -1.09765625 8.3984375 C-1.10289307 7.21942871 -1.10812988 6.04041992 -1.11352539 4.82568359 C-1 2 -1 2 0 0 Z " fill="#282E37" transform="translate(105,58)"/>
<path d="M0 0 C1.0326802 2.78823655 1.04509293 3.8677274 0.0625 6.75 C-0.288125 7.4925 -0.63875 8.235 -1 9 C-0.34 9 0.32 9 1 9 C1 11.64 1 14.28 1 17 C-2.63 17 -6.26 17 -10 17 C-9.34 15.68 -8.68 14.36 -8 13 C-7.37748769 10.88345816 -7 9.20575883 -7 7 C-6.01 7 -5.02 7 -4 7 C-3.34 5.35 -2.68 3.7 -2 2 C-1.34 2 -0.68 2 0 2 C0 1.34 0 0.68 0 0 Z M-3 10 C-2.67 10.99 -2.34 11.98 -2 13 C-1.34 13 -0.68 13 0 13 C-0.33 12.01 -0.66 11.02 -1 10 C-1.66 10 -2.32 10 -3 10 Z " fill="#FFFFFF" transform="translate(479,49)"/>
<path d="M0 0 C0.66 0.66 1.32 0.66 2 1 C1.071875 2.1446875 1.071875 2.1446875 0.125 3.3125 C-2.05597052 5.99625809 -2.05597052 5.99625809 -4 9 C-4.66 9 -5.32 9 -6 9 C-6.93249614 11.79748841 -7.13476152 13.54320881 -7.125 16.4375 C-7.12757813 17.19933594 -7.13015625 17.96117188 -7.1328125 18.74609375 C-7.00276015 20.95315859 -6.60856199 22.87969276 -6 25 C-5.34 25 -4.68 25 -4 25 C-2.61061923 26.96147874 -1.2739589 28.96166576 0 31 C-3.78200321 30.13554212 -5.63560066 28.58497736 -7.8125 25.5 C-10.56583779 20.72291551 -10.82298701 16.39011275 -10 11 C-8.11130184 5.63212102 -5.08016831 2.54008416 0 0 Z " fill="#151A24" transform="translate(162,60)"/>
<path d="M0 0 C0.19625099 3.95795086 0.38051982 7.91636935 0.5625 11.875 C0.61857422 13.00292969 0.67464844 14.13085938 0.73242188 15.29296875 C0.78076172 16.36933594 0.82910156 17.44570313 0.87890625 18.5546875 C0.94960327 20.04718018 0.94960327 20.04718018 1.02172852 21.56982422 C1 24 1 24 0 26 C-0.99 26 -1.98 26 -3 26 C-3 18.08 -3 10.16 -3 2 C-4.32 1.67 -5.64 1.34 -7 1 C-4 0 -4 0 0 0 Z " fill="#2A2F39" transform="translate(107,18)"/>
<path d="M0 0 C2.31 0 4.62 0 7 0 C7 0.66 7 1.32 7 2 C8.0828125 2.2475 8.0828125 2.2475 9.1875 2.5 C13.24885328 4.66605508 15.21074233 7.80366924 17 12 C16.8125 15 16.8125 15 16 17 C14 16 14 16 13 13 C13.33 12.01 13.66 11.02 14 10 C12.69975964 9.34987982 11.38737121 8.72332894 10.0625 8.125 C8 7 8 7 6.6640625 5.41015625 C5.07560186 3.76809012 5.07560186 3.76809012 2.73828125 3.92578125 C1.93777344 4.05339844 1.13726562 4.18101563 0.3125 4.3125 C-0.49574219 4.43238281 -1.30398438 4.55226563 -2.13671875 4.67578125 C-2.75160156 4.78277344 -3.36648438 4.88976563 -4 5 C-3.67 4.01 -3.34 3.02 -3 2 C-2.01 2.33 -1.02 2.66 0 3 C0 2.01 0 1.02 0 0 Z " fill="#FFFFFF" transform="translate(467,28)"/>
<path d="M0 0 C0.66 0 1.32 0 2 0 C2 0.66 2 1.32 2 2 C3.65 2.66 5.3 3.32 7 4 C7 4.66 7 5.32 7 6 C4.83125748 5.49396008 3.00032373 5.00016187 1 4 C1.00523682 4.60062256 1.01047363 5.20124512 1.01586914 5.82006836 C1.03658014 8.52586838 1.04964125 11.23165177 1.0625 13.9375 C1.07087891 14.88302734 1.07925781 15.82855469 1.08789062 16.80273438 C1.09111328 17.70185547 1.09433594 18.60097656 1.09765625 19.52734375 C1.10289307 20.35999756 1.10812988 21.19265137 1.11352539 22.05053711 C1 24 1 24 0 25 C-2.35313555 25.07271741 -4.70833668 25.08370868 -7.0625 25.0625 C-8.35285156 25.05347656 -9.64320313 25.04445313 -10.97265625 25.03515625 C-11.97167969 25.02355469 -12.97070312 25.01195313 -14 25 C-14 24.67 -14 24.34 -14 24 C-12.20843648 23.83222817 -10.4167455 23.66581706 -8.625 23.5 C-7.62726563 23.4071875 -6.62953125 23.314375 -5.6015625 23.21875 C-3 23 -3 23 -1 23 C-1.00523682 22.3387915 -1.01047363 21.67758301 -1.01586914 20.99633789 C-1.03657656 18.01840149 -1.04964012 15.04048018 -1.0625 12.0625 C-1.07087891 11.02158203 -1.07925781 9.98066406 -1.08789062 8.90820312 C-1.09111328 7.91884766 -1.09433594 6.92949219 -1.09765625 5.91015625 C-1.10289307 4.99371338 -1.10812988 4.07727051 -1.11352539 3.13305664 C-1 1 -1 1 0 0 Z " fill="#FFFFFF" transform="translate(519,85)"/>
<path d="M0 0 C2.38567984 1.69185796 2.50955552 3.02514158 2.99609375 5.86328125 C3.145625 6.68054687 3.29515625 7.4978125 3.44921875 8.33984375 C3.59617187 9.27957031 3.59617187 9.27957031 3.74609375 10.23828125 C3.31296875 9.64015625 2.87984375 9.04203125 2.43359375 8.42578125 C1.87671875 7.70390625 1.31984375 6.98203125 0.74609375 6.23828125 C0.34648437 5.70589844 -0.053125 5.17351563 -0.46484375 4.625 C-4.39090561 1.58187345 -10.54640509 2.78141074 -15.25390625 3.23828125 C-17.54965975 4.01341573 -19.18531067 4.95239751 -21.25390625 6.23828125 C-21.91390625 5.90828125 -22.57390625 5.57828125 -23.25390625 5.23828125 C-22.92390625 4.57828125 -22.59390625 3.91828125 -22.25390625 3.23828125 C-21.59390625 3.23828125 -20.93390625 3.23828125 -20.25390625 3.23828125 C-20.25390625 2.57828125 -20.25390625 1.91828125 -20.25390625 1.23828125 C-13.61919627 -2.44766874 -7.19924906 -2.43302178 0 0 Z " fill="#0C1018" transform="translate(387.25390625,49.76171875)"/>
<path d="M0 0 C-0.33 10.56 -0.66 21.12 -1 32 C-1.99 32.495 -1.99 32.495 -3 33 C-3.16780395 28.92514175 -3.32834318 24.8500684 -3.48217773 20.7746582 C-3.53552222 19.38851232 -3.59084559 18.00244111 -3.64819336 16.61645508 C-3.73031421 14.62341774 -3.80471215 12.63006691 -3.87890625 10.63671875 C-3.9260376 9.43748779 -3.97316895 8.23825684 -4.02172852 7.00268555 C-4 4 -4 4 -3 1 C-1 0 -1 0 0 0 Z " fill="#FFFFFF" transform="translate(505,36)"/>
<path d="M0 0 C2.40975706 3.61463559 2.33239432 6.3221926 2.3125 10.5 C2.32861328 11.17675781 2.34472656 11.85351562 2.36132812 12.55078125 C2.36405864 15.31952361 2.27256961 17.50161542 0.9296875 19.95703125 C-2.09022255 21.58924984 -4.79509981 21.28086881 -8.1875 21.1875 C-10.09595703 21.14689453 -10.09595703 21.14689453 -12.04296875 21.10546875 C-13.01878906 21.07066406 -13.99460938 21.03585938 -15 21 C-13.6796875 19.50390625 -13.6796875 19.50390625 -12 18 C-10.00047242 17.95653201 -7.99960012 17.960008 -6 18 C-4.35 17.34 -2.7 16.68 -1 16 C-0.67 10.72 -0.34 5.44 0 0 Z " fill="#0F1B23" transform="translate(232,72)"/>
<path d="M0 0 C0.99 0.33 1.98 0.66 3 1 C2.67 11.89 2.34 22.78 2 34 C1.01 34.495 1.01 34.495 0 35 C0 23.45 0 11.9 0 0 Z " fill="#272E36" transform="translate(88,19)"/>
<path d="M0 0 C5.93687157 2.60643142 11.47853724 5.95707448 14.4375 11.875 C14.623125 12.57625 14.80875 13.2775 15 14 C14.401875 13.835 13.80375 13.67 13.1875 13.5 C10.88655664 12.8885876 10.88655664 12.8885876 8 13 C6.6256709 11.70896357 5.29103643 10.3743291 4 9 C3.34 8.67 2.68 8.34 2 8 C2.33 6.68 2.66 5.36 3 4 C2.01 3.34 1.02 2.68 0 2 C0 1.34 0 0.68 0 0 Z " fill="#FFFFFF" transform="translate(472,22)"/>
<path d="M0 0 C1.32 0.66 2.64 1.32 4 2 C3.01 3.485 3.01 3.485 2 5 C0.97860587 9.48385601 0.89423233 13.78862675 0.9375 18.375 C0.94652344 19.62023437 0.95554687 20.86546875 0.96484375 22.1484375 C0.97644531 23.08945313 0.98804688 24.03046875 1 25 C0.01 24.67 -0.98 24.34 -2 24 C-5.12359133 17.75281734 -2.9345601 8.42499888 -1 2 C-0.67 1.34 -0.34 0.68 0 0 Z " fill="#FFFFFF" transform="translate(418,41)"/>
<path d="M0 0 C0.66 0 1.32 0 2 0 C5.08240173 10.59575594 4.27562506 17.78812764 0 28 C-1.05182847 24.84451459 -0.95562065 23.42467866 -0.5625 20.1875 C0.14159817 13.45343285 0.08886367 6.76351283 0 0 Z " fill="#FFFFFF" transform="translate(559,53)"/>
<path d="M0 0 C0.74507812 0.00902344 1.49015625 0.01804687 2.2578125 0.02734375 C4.08868059 0.05081642 5.91938238 0.08668475 7.75 0.125 C8.08 2.105 8.41 4.085 8.75 6.125 C7.43 6.455 6.11 6.785 4.75 7.125 C4.75 7.785 4.75 8.445 4.75 9.125 C4.09 9.125 3.43 9.125 2.75 9.125 C3.41 6.815 4.07 4.505 4.75 2.125 C2.81183265 2.2391866 0.87444901 2.36673423 -1.0625 2.5 C-2.14144531 2.56960937 -3.22039062 2.63921875 -4.33203125 2.7109375 C-7.43626186 2.93695733 -7.43626186 2.93695733 -10.25 5.125 C-10.97382467 7.18425139 -10.97382467 7.18425139 -11.25 9.125 C-11.91 9.125 -12.57 9.125 -13.25 9.125 C-13 5.75 -13 5.75 -12.25 2.125 C-8.69935179 -0.70102613 -4.30711451 -0.09892666 0 0 Z " fill="#131923" transform="translate(181.25,68.875)"/>
<path d="M0 0 C0.33 0 0.66 0 1 0 C1 10.89 1 21.78 1 33 C-2.98780002 34.99390001 -4.47147572 35.22686963 -8.75 35.125 C-10.22726563 35.09792969 -10.22726563 35.09792969 -11.734375 35.0703125 C-12.48203125 35.04710937 -13.2296875 35.02390625 -14 35 C-14 34.01 -14 33.02 -14 32 C-13.22914063 32.01160156 -12.45828125 32.02320313 -11.6640625 32.03515625 C-10.15972656 32.04869141 -10.15972656 32.04869141 -8.625 32.0625 C-7.12839844 32.07990234 -7.12839844 32.07990234 -5.6015625 32.09765625 C-3.01567547 32.18006602 -3.01567547 32.18006602 -1 31 C-0.67 20.77 -0.34 10.54 0 0 Z " fill="#12161F" transform="translate(204,58)"/>
<path d="M0 0 C0.99 0.66 1.98 1.32 3 2 C3.1875 4.625 3.1875 4.625 3 7 C1.35 7.33 -0.3 7.66 -2 8 C-2 9.98 -2 11.96 -2 14 C-2.99 14 -3.98 14 -5 14 C-5.66 11.69 -6.32 9.38 -7 7 C-6.01 6.34 -5.02 5.68 -4 5 C-3.31731862 3.67479497 -2.6492959 2.34187818 -2 1 C-1.34 0.67 -0.68 0.34 0 0 Z M-1 3 C-0.67 3.99 -0.34 4.98 0 6 C0.66 5.67 1.32 5.34 2 5 C2 4.34 2 3.68 2 3 C1.01 3 0.02 3 -1 3 Z " fill="#FFFFFF" transform="translate(456,22)"/>
<path d="M0 0 C0.99 0 1.98 0 3 0 C3 5.94 3 11.88 3 18 C2.34 18.33 1.68 18.66 1 19 C-1.13729958 12.45452003 -1.64774582 6.79695149 0 0 Z " fill="#FFFFFF" transform="translate(443,24)"/>
<path d="M0 0 C1.32 0.66 2.64 1.32 4 2 C3.34 2 2.68 2 2 2 C2.33 4.64 2.66 7.28 3 10 C2.34 10 1.68 10 1 10 C1 12.31 1 14.62 1 17 C0.34 16.67 -0.32 16.34 -1 16 C-1.39310414 13.67711188 -1.50749695 11.38154824 -1.65625 9.03125 C-1.7696875 8.3609375 -1.883125 7.690625 -2 7 C-2.66 6.67 -3.32 6.34 -4 6 C-1.125 1.125 -1.125 1.125 0 0 Z " fill="#FFFFFF" transform="translate(457,74)"/>
<path d="M0 0 C0.33 0.66 0.66 1.32 1 2 C1.66 2.33 2.32 2.66 3 3 C-2.68284956 5.74976592 -8.94268579 6.81279169 -15.0625 5.0625 C-16.031875 4.711875 -17.00125 4.36125 -18 4 C-18 3.34 -18 2.68 -18 2 C-14.33333333 2 -10.66666667 2 -7 2 C-3.18048626 1.73861239 -3.18048626 1.73861239 0 0 Z " fill="#161C25" transform="translate(182,88)"/>
<path d="M0 0 C0.66 0 1.32 0 2 0 C2.05383848 2.45862401 2.09359038 4.9160755 2.125 7.375 C2.14175781 8.07367188 2.15851562 8.77234375 2.17578125 9.4921875 C2.19344267 11.32897486 2.10303261 13.16601963 2 15 C0 17 0 17 -3.2578125 17.1953125 C-4.53398438 17.17210938 -5.81015625 17.14890625 -7.125 17.125 C-9.04699219 17.09792969 -9.04699219 17.09792969 -11.0078125 17.0703125 C-12.48894531 17.03550781 -12.48894531 17.03550781 -14 17 C-14 16.67 -14 16.34 -14 16 C-11.03 16 -8.06 16 -5 16 C-5 15.34 -5 14.68 -5 14 C-3.68 14 -2.36 14 -1 14 C-0.67 9.38 -0.34 4.76 0 0 Z " fill="#090A16" transform="translate(37,76)"/>
<path d="M0 0 C5.28 0.33 10.56 0.66 16 1 C16 1.33 16 1.66 16 2 C11.38 2 6.76 2 2 2 C2 7.61 2 13.22 2 19 C-1.37749353 14.4966753 -1.24277741 12.46409422 -0.6875 7.25 C-0.460625 4.8575 -0.23375 2.465 0 0 Z " fill="#0B0D16" transform="translate(37,36)"/>
<path d="M0 0 C0.66 0.33 1.32 0.66 2 1 C2 2.98 2 4.96 2 7 C7.74956309 10.09052705 7.74956309 10.09052705 14.0625 10.75 C14.701875 10.5025 15.34125 10.255 16 10 C15.67 11.32 15.34 12.64 15 14 C2.04188482 11.55235602 2.04188482 11.55235602 -1.5 7.125 C-2.18433753 4.21656551 -1.30894094 2.61788188 0 0 Z " fill="#FFFFFF" transform="translate(567,79)"/>
<path d="M0 0 C0.66 0.33 1.32 0.66 2 1 C1.67 2.32 1.34 3.64 1 5 C1.33 5 1.66 5 2 5 C1.38461538 11.52307692 1.38461538 11.52307692 -0.5625 13.9375 C-1.036875 14.288125 -1.51125 14.63875 -2 15 C-3.42944945 12.64561267 -4.08661261 11.51967567 -3.625 8.75 C-3.41875 8.1725 -3.2125 7.595 -3 7 C-3.66 7 -4.32 7 -5 7 C-4.34 5.68 -3.68 4.36 -3 3 C-2.34 3 -1.68 3 -1 3 C-0.67 2.01 -0.34 1.02 0 0 Z " fill="#FFFFFF" transform="translate(454,75)"/>
<path d="M0 0 C0.33 0 0.66 0 1 0 C1.33 6.27 1.66 12.54 2 19 C2.33 19 2.66 19 3 19 C3 23.29 3 27.58 3 32 C2.01 32.495 2.01 32.495 1 33 C0.03534509 25.77648171 -0.11956114 18.71937932 -0.0625 11.4375 C-0.05798828 10.33341797 -0.05347656 9.22933594 -0.04882812 8.09179688 C-0.0371514 5.394473 -0.02077525 2.69726653 0 0 Z " fill="#FFFFFF" transform="translate(501,49)"/>
<path d="M0 0 C-0.33 1.32 -0.66 2.64 -1 4 C-1.99 4 -2.98 4 -4 4 C-4 3.34 -4 2.68 -4 2 C-5.32 2 -6.64 2 -8 2 C-8 2.66 -8 3.32 -8 4 C-7.01 3.67 -6.02 3.34 -5 3 C-5 3.66 -5 4.32 -5 5 C-8.63 4.67 -12.26 4.34 -16 4 C-16.33 3.01 -16.66 2.02 -17 1 C-5.47835991 -0.14806378 -5.47835991 -0.14806378 0 0 Z " fill="#FFFFFF" transform="translate(486,65)"/>
<path d="M0 0 C3.875 0.875 3.875 0.875 5 2 C5.09909302 4.33160055 5.12970504 6.66629942 5.125 9 C5.12757813 10.27875 5.13015625 11.5575 5.1328125 12.875 C5 16 5 16 4 17 C2.53051037 17.28469564 1.04808195 17.5044763 -0.4375 17.6875 C-1.24058594 17.79449219 -2.04367188 17.90148437 -2.87109375 18.01171875 C-5 18 -5 18 -7 16 C-2.545 15.505 -2.545 15.505 2 15 C2.24900646 13.06494977 2.47356242 11.12674066 2.6875 9.1875 C2.87892578 7.56908203 2.87892578 7.56908203 3.07421875 5.91796875 C3.29015292 2.98314944 3.29015292 2.98314944 1.51953125 1.11328125 C1.01808594 0.74589844 0.51664063 0.37851562 0 0 Z " fill="#131722" transform="translate(247,36)"/>
<path d="M0 0 C0.33 0 0.66 0 1 0 C1 2.64 1 5.28 1 8 C3.92824652 8.97608217 5.95613276 9.08226668 9 9 C9 9.66 9 10.32 9 11 C10.32 11.33 11.64 11.66 13 12 C11.04196493 12.05389087 9.08351091 12.09274217 7.125 12.125 C6.03445313 12.14820312 4.94390625 12.17140625 3.8203125 12.1953125 C1 12 1 12 -1 10 C-1.23046875 7.87109375 -1.23046875 7.87109375 -1.1875 5.4375 C-1.18105469 4.63183594 -1.17460937 3.82617188 -1.16796875 2.99609375 C-1 1 -1 1 0 0 Z " fill="#13161F" transform="translate(294,81)"/>
<path d="M0 0 C5.15171623 -0.09038099 9.91913204 0.15318867 15 1 C14.67 2.32 14.34 3.64 14 5 C9.53160785 5.21278058 6.17737474 4.59138085 2 3 C2 2.34 2 1.68 2 1 C1.34 0.67 0.68 0.34 0 0 Z " fill="#FFFFFF" transform="translate(451,18)"/>
<path d="M0 0 C-0.33 0.66 -0.66 1.32 -1 2 C-1.58007812 1.89300781 -2.16015625 1.78601562 -2.7578125 1.67578125 C-8.18864694 0.84233636 -11.19190283 0.98096224 -16 4 C-17.33333333 4.66666667 -18.66666667 5.33333333 -20 6 C-18.03878735 1.58727155 -15.53740852 -0.48712463 -11.2734375 -2.484375 C-7.15304498 -3.41889702 -3.70630381 -1.75019902 0 0 Z " fill="#FFFFFF" transform="translate(540,51)"/>
<path d="M0 0 C0.33 0.66 0.66 1.32 1 2 C2.98 2 4.96 2 7 2 C7 2.66 7 3.32 7 4 C8.32 4.33 9.64 4.66 11 5 C8.70839681 5.02692484 6.41670454 5.04636124 4.125 5.0625 C2.84882813 5.07410156 1.57265625 5.08570312 0.2578125 5.09765625 C-3 5 -3 5 -5 4 C-4.67 3.01 -4.34 2.02 -4 1 C-1.9375 0.3125 -1.9375 0.3125 0 0 Z " fill="#101420" transform="translate(262,88)"/>
<path d="M0 0 C1.0326802 2.78823655 1.04509293 3.8677274 0.0625 6.75 C-0.288125 7.4925 -0.63875 8.235 -1 9 C-0.34 9 0.32 9 1 9 C1 10.65 1 12.3 1 14 C-0.32 14 -1.64 14 -3 14 C-2.01 13.67 -1.02 13.34 0 13 C-0.33 12.34 -0.66 11.68 -1 11 C-3.02463255 10.34786708 -3.02463255 10.34786708 -5 10 C-4.45276317 6.62537285 -3.9451 4.91765 -2 2 C-1.34 2 -0.68 2 0 2 C0 1.34 0 0.68 0 0 Z " fill="#FFFFFF" transform="translate(479,49)"/>
<path d="M0 0 C1.9375 1.5 1.9375 1.5 3 3 C1.88625 2.95875 0.7725 2.9175 -0.375 2.875 C-5.39901336 2.85699278 -10.1218197 3.88041764 -15 5 C-15 4.01 -15 3.02 -15 2 C-9.87490686 0.56137736 -5.37479371 -0.52694056 0 0 Z " fill="#0C121A" transform="translate(179,49)"/>
<path d="M0 0 C1.11761719 -0.00515625 2.23523438 -0.0103125 3.38671875 -0.015625 C6.3125 0.25 6.3125 0.25 9.3125 2.25 C8.14332031 2.31058594 6.97414062 2.37117188 5.76953125 2.43359375 C4.22134386 2.51804034 2.67316732 2.60268625 1.125 2.6875 C0.35607422 2.72681641 -0.41285156 2.76613281 -1.20507812 2.80664062 C-5.12001075 3.02507034 -8.85870688 3.33692108 -12.6875 4.25 C-12.6875 3.59 -12.6875 2.93 -12.6875 2.25 C-8.31563871 0.58326922 -4.6729481 -0.0217094 0 0 Z " fill="#161A20" transform="translate(122.6875,35.75)"/>
<path d="M0 0 C3.93734037 3.31565505 5.83762499 5.98019031 6.86328125 10.9296875 C7.08622961 14.30576263 6.18117079 16.85021122 5 20 C4.34 19.67 3.68 19.34 3 19 C3.03480469 18.19175781 3.06960938 17.38351563 3.10546875 16.55078125 C3.13253906 15.48214844 3.15960937 14.41351563 3.1875 13.3125 C3.22230469 12.25675781 3.25710938 11.20101562 3.29296875 10.11328125 C2.96495592 6.62759828 1.9186507 4.87545813 0 2 C0 1.34 0 0.68 0 0 Z " fill="#FFFFFF" transform="translate(609,63)"/>
<path d="M0 0 C0.33 0.99 0.66 1.98 1 3 C0.69916504 3.58749023 0.39833008 4.17498047 0.08837891 4.78027344 C-1.36903451 7.75263834 -1.32401647 10.21393728 -1.4140625 13.515625 C-1.45273437 14.76601562 -1.49140625 16.01640625 -1.53125 17.3046875 C-1.5621875 18.60664062 -1.593125 19.90859375 -1.625 21.25 C-1.66367187 22.56742188 -1.70234375 23.88484375 -1.7421875 25.2421875 C-1.83646182 28.49465161 -1.9220675 31.74710996 -2 35 C-2.33 35 -2.66 35 -3 35 C-3.04962653 30.96154588 -3.08582632 26.92321113 -3.10986328 22.88452148 C-3.11988926 21.51209417 -3.13351356 20.13968805 -3.15087891 18.76733398 C-3.17527627 16.78899473 -3.18544484 14.81049633 -3.1953125 12.83203125 C-3.20578613 11.64327393 -3.21625977 10.4545166 -3.22705078 9.22973633 C-2.98728136 5.81908082 -2.51401237 2.51401237 0 0 Z " fill="#2A303B" transform="translate(312,54)"/>
<path d="M0 0 C0.99 0.33 1.98 0.66 3 1 C2.21625 1.804375 1.4325 2.60875 0.625 3.4375 C-2.57129057 7.21328801 -3.28568622 11.20237016 -4 16 C-4.66 16 -5.32 16 -6 16 C-6.81128636 12.97119757 -7.32069107 11.06208245 -7 8 C-5.02819274 4.94421492 -2.64658127 2.48158244 0 0 Z " fill="#FFFFFF" transform="translate(433,59)"/>
<path d="M0 0 C0.33 0.66 0.66 1.32 1 2 C-2.06246747 3.78409802 -4.22079273 4.22880021 -7.75 4.125 C-8.54921875 4.10695313 -9.3484375 4.08890625 -10.171875 4.0703125 C-10.77515625 4.04710937 -11.3784375 4.02390625 -12 4 C-11.34 3.67 -10.68 3.34 -10 3 C-10 2.34 -10 1.68 -10 1 C-6.52674819 -0.1577506 -3.63932552 -0.06866652 0 0 Z M-14 4 C-13.34 4.33 -12.68 4.66 -12 5 C-12.99 5.99 -13.98 6.98 -15 8 C-15.66 7.34 -16.32 6.68 -17 6 C-16.01 5.34 -15.02 4.68 -14 4 Z " fill="#FFFFFF" transform="translate(590,36)"/>
<path d="M0 0 C2.31 0 4.62 0 7 0 C7 0.66 7 1.32 7 2 C7.66 2 8.32 2 9 2 C8.67 2.99 8.34 3.98 8 5 C7.01 4.67 6.02 4.34 5 4 C2.70546505 4.09406754 2.70546505 4.09406754 0.3125 4.4375 C-0.49574219 4.53933594 -1.30398438 4.64117187 -2.13671875 4.74609375 C-3.05904297 4.87177734 -3.05904297 4.87177734 -4 5 C-3.67 4.01 -3.34 3.02 -3 2 C-2.01 2.33 -1.02 2.66 0 3 C0 2.01 0 1.02 0 0 Z " fill="#FFFFFF" transform="translate(467,28)"/>
<path d="M0 0 C1.051875 0.2475 1.051875 0.2475 2.125 0.5 C5.13888194 1.02415338 7.94713625 1.07099683 11 1 C11 1.66 11 2.32 11 3 C11.99 3.33 12.98 3.66 14 4 C9.05 4 4.1 4 -1 4 C-0.67 2.68 -0.34 1.36 0 0 Z " fill="#0F131C" transform="translate(130,89)"/>
<path d="M0 0 C2.02910711 0.25327449 4.04962145 0.57730068 6.0625 0.9375 C7.16722656 1.13214844 8.27195312 1.32679687 9.41015625 1.52734375 C10.69212891 1.76130859 10.69212891 1.76130859 12 2 C12 3.65 12 5.3 12 7 C11.1646875 6.505 11.1646875 6.505 10.3125 6 C7.67577878 4.85979623 5.84438013 4.92706718 3 5 C2.01 4.67 1.02 4.34 0 4 C-0.33 3.01 -0.66 2.02 -1 1 C-0.67 0.67 -0.34 0.34 0 0 Z " fill="#FFFFFF" transform="translate(591,57)"/>
<path d="M0 0 C0.33 0 0.66 0 1 0 C1 10.23 1 20.46 1 31 C0.67 31 0.34 31 0 31 C-0.02505615 30.22809326 -0.0501123 29.45618652 -0.07592773 28.66088867 C-0.19184007 25.16958819 -0.31458824 21.67856078 -0.4375 18.1875 C-0.47681641 16.97255859 -0.51613281 15.75761719 -0.55664062 14.50585938 C-0.59853516 13.34248047 -0.64042969 12.17910156 -0.68359375 10.98046875 C-0.72025146 9.90692139 -0.75690918 8.83337402 -0.79467773 7.72729492 C-0.89541847 4.90688447 -0.89541847 4.90688447 -2 2 C-1.34 1.34 -0.68 0.68 0 0 Z " fill="#272E37" transform="translate(295,57)"/>
<path d="M0 0 C0.95003906 0.10957031 1.90007812 0.21914063 2.87890625 0.33203125 C3.82636719 0.42871094 4.77382813 0.52539062 5.75 0.625 C8.41864199 1.14013699 10.23128416 1.56302177 12.44140625 3.14453125 C13.26953125 5.30859375 13.26953125 5.30859375 13.69140625 7.76953125 C13.8409375 8.58679687 13.99046875 9.4040625 14.14453125 10.24609375 C14.29148437 11.18582031 14.29148437 11.18582031 14.44140625 12.14453125 C14.02890625 11.56703125 13.61640625 10.98953125 13.19140625 10.39453125 C11.47010874 8.07433841 11.47010874 8.07433841 9.25390625 6.01953125 C7.44140625 4.14453125 7.44140625 4.14453125 7.44140625 2.14453125 C1.00640625 2.63953125 1.00640625 2.63953125 -5.55859375 3.14453125 C-2.55859375 0.14453125 -2.55859375 0.14453125 0 0 Z " fill="#131923" transform="translate(376.55859375,47.85546875)"/>
<path d="M0 0 C-0.33 0.66 -0.66 1.32 -1 2 C-5.29 2 -9.58 2 -14 2 C-14.33 2.66 -14.66 3.32 -15 4 C-17 3 -17 3 -18 1 C-15.93939936 0.63494484 -13.87640368 0.28339285 -11.8125 -0.0625 C-10.66394531 -0.25972656 -9.51539063 -0.45695312 -8.33203125 -0.66015625 C-5.21351634 -0.97822284 -3.00194217 -0.80843264 0 0 Z " fill="#252C35" transform="translate(389,60)"/>
<path d="M0 0 C0.66 0 1.32 0 2 0 C2 1.32 2 2.64 2 4 C-3.36439644 6.68219822 -7.01006953 7.3152595 -13 7 C-13 6.34 -13 5.68 -13 5 C-11.96939453 4.83564453 -11.96939453 4.83564453 -10.91796875 4.66796875 C-10.01691406 4.50941406 -9.11585938 4.35085937 -8.1875 4.1875 C-6.84751953 3.96126953 -6.84751953 3.96126953 -5.48046875 3.73046875 C-2.78321371 2.936159 -1.85439811 2.03259853 0 0 Z " fill="#171A25" transform="translate(389,75)"/>
<path d="M0 0 C2 2 2 2 3 4 C1.68 4.99 0.36 5.98 -1 7 C-1.66 6.01 -2.32 5.02 -3 4 C-5.05925139 3.27617533 -5.05925139 3.27617533 -7 3 C-7 2.01 -7 1.02 -7 0 C-3.98968256 -0.93423645 -3.13349732 -1.04449911 0 0 Z " fill="#FFFFFF" transform="translate(453,19)"/>
<path d="M0 0 C0.66 0.33 1.32 0.66 2 1 C1.95875 2.0725 1.9175 3.145 1.875 4.25 C1.9885825 7.65747485 2.21273364 9.20739631 4 12 C2.02 12.99 2.02 12.99 0 14 C-0.66 12.68 -1.32 11.36 -2 10 C-1.34 10 -0.68 10 0 10 C0 6.7 0 3.4 0 0 Z " fill="#161922" transform="translate(21,79)"/>
<path d="M0 0 C2.97 1.32 5.94 2.64 9 4 C8.6875 6.375 8.6875 6.375 8 9 C7.01 9.66 6.02 10.32 5 11 C4.34 10.34 3.68 9.68 3 9 C3.99 8.67 4.98 8.34 6 8 C6.33 7.01 6.66 6.02 7 5 C2.545 4.01 2.545 4.01 -2 3 C-1.34 2.01 -0.68 1.02 0 0 Z " fill="#FFFFFF" transform="translate(591,69)"/>
<path d="M0 0 C1.8125 0.1875 1.8125 0.1875 4 1 C5.8125 3.25 5.8125 3.25 7 6 C6.6875 8.8125 6.6875 8.8125 6 11 C4.02696226 9.02696226 3.22854066 7.45708131 2 5 C1.34 4.34 0.68 3.68 0 3 C0 2.01 0 1.02 0 0 Z " fill="#2B313B" transform="translate(196,43)"/>
<path d="M0 0 C0.97001682 3.39505887 1 6.47064557 1 10 C0.01 9.67 -0.98 9.34 -2 9 C-2.6875 6.9375 -2.6875 6.9375 -3 5 C-3 6.65 -3 8.3 -3 10 C-3.99 8.68 -4.98 7.36 -6 6 C-4.68 5.34 -3.36 4.68 -2 4 C-2 3.01 -2 2.02 -2 1 C-1.34 0.67 -0.68 0.34 0 0 Z " fill="#FFFFFF" transform="translate(439,24)"/>
<path d="M0 0 C-6.05022986 2.66557258 -11.38914524 4.51030705 -18 5 C-18 4.34 -18 3.68 -18 3 C-17.11248047 2.81824219 -17.11248047 2.81824219 -16.20703125 2.6328125 C-12.72347039 1.89404755 -9.4772319 1.20149791 -6.1875 -0.1875 C-3.61295093 -1.14376108 -2.56965613 -0.75958389 0 0 Z " fill="#FFFFFF" transform="translate(476,91)"/>
<path d="M0 0 C0.66 0 1.32 0 2 0 C2 0.66 2 1.32 2 2 C2.68707031 2.12117188 3.37414062 2.24234375 4.08203125 2.3671875 C4.98308594 2.53476563 5.88414062 2.70234375 6.8125 2.875 C8.15248047 3.11863281 8.15248047 3.11863281 9.51953125 3.3671875 C12 4 12 4 15 6 C11.8568669 7.57156655 9.634536 6.11705576 6.375 5.0625 C5.18648437 4.68222656 3.99796875 4.30195312 2.7734375 3.91015625 C1.85820313 3.60980469 0.94296875 3.30945313 0 3 C0 2.01 0 1.02 0 0 Z " fill="#FFFFFF" transform="translate(573,65)"/>
<path d="M0 0 C4.83290538 4.049191 6.3833652 7.96719209 8 14 C3.55378876 9.86042401 0.8697403 6.08818211 0 0 Z " fill="#0A0D16" transform="translate(75,29)"/>
<path d="M0 0 C0 0.99 0 1.98 0 3 C-5.94 3.495 -5.94 3.495 -12 4 C-9.57836922 -0.84326157 -4.82936706 -0.18574489 0 0 Z " fill="#FFFFFF" transform="translate(538,36)"/>
<path d="M0 0 C0.33 0 0.66 0 1 0 C0.96591928 7.82152466 0.96591928 7.82152466 -1.40234375 10.7109375 C-3.0625 12.0625 -3.0625 12.0625 -6 14 C-5.38349808 9.99273754 -3.21423629 7.32135444 -1 4 C-0.23060319 1.77397385 -0.23060319 1.77397385 0 0 Z " fill="#FFFFFF" transform="translate(558,73)"/>
<path d="M0 0 C0 3.3 0 6.6 0 10 C-0.99 10 -1.98 10 -3 10 C-3 7.03 -3 4.06 -3 1 C-1 0 -1 0 0 0 Z " fill="#292F3A" transform="translate(91,81)"/>
<path d="M0 0 C1.27230469 0.00902344 2.54460937 0.01804688 3.85546875 0.02734375 C5.31919922 0.04474609 5.31919922 0.04474609 6.8125 0.0625 C6.8125 0.3925 6.8125 0.7225 6.8125 1.0625 C5.93207031 1.18367188 5.05164063 1.30484375 4.14453125 1.4296875 C2.98308594 1.59726562 1.82164062 1.76484375 0.625 1.9375 C-1.09783203 2.18113281 -1.09783203 2.18113281 -2.85546875 2.4296875 C-5.87474625 3.00310245 -8.39325848 3.81009043 -11.1875 5.0625 C-10.875 3.125 -10.875 3.125 -10.1875 1.0625 C-6.62704823 -0.12431726 -3.74941663 -0.03439832 0 0 Z " fill="#1B1F29" transform="translate(377.1875,58.9375)"/>
<path d="M0 0 C4.62 0 9.24 0 14 0 C14 0.99 14 1.98 14 3 C9.38 3 4.76 3 0 3 C0 2.01 0 1.02 0 0 Z " fill="#FFFFFF" transform="translate(587,49)"/>
<path d="M0 0 C2.97 0.33 5.94 0.66 9 1 C9 1.99 9 2.98 9 4 C6.25 4.6875 6.25 4.6875 3 5 C0.625 3.5625 0.625 3.5625 -1 2 C-0.67 1.34 -0.34 0.68 0 0 Z " fill="#FFFFFF" transform="translate(593,35)"/>
<path d="M0 0 C0.33 0.99 0.66 1.98 1 3 C0.07767578 2.98259766 0.07767578 2.98259766 -0.86328125 2.96484375 C-2.07564453 2.95130859 -2.07564453 2.95130859 -3.3125 2.9375 C-4.11300781 2.92589844 -4.91351563 2.91429687 -5.73828125 2.90234375 C-8.16861334 2.90342145 -8.16861334 2.90342145 -11 4 C-8.36255031 -1.84006718 -6.04918208 -1.00819701 0 0 Z " fill="#0F141B" transform="translate(326,51)"/>
<path d="M0 0 C-0.66 0.66 -1.32 1.32 -2 2 C-5.2578125 1.9765625 -5.2578125 1.9765625 -9.125 1.625 C-10.40632812 1.51414063 -11.68765625 1.40328125 -13.0078125 1.2890625 C-13.99523437 1.19367187 -14.98265625 1.09828125 -16 1 C-16 0.67 -16 0.34 -16 0 C-10.39436958 -0.82622671 -5.57710648 -1.06795656 0 0 Z " fill="#272C36" transform="translate(192,38)"/>
<path d="M0 0 C1.38157895 4.14473684 1.38157895 4.14473684 0 7 C-3.0625 8.25 -3.0625 8.25 -6 9 C-5.34 7.35 -4.68 5.7 -4 4 C-3.34 4 -2.68 4 -2 4 C-2 3.34 -2 2.68 -2 2 C-1.34 2 -0.68 2 0 2 C0 1.34 0 0.68 0 0 Z " fill="#FFFFFF" transform="translate(461,30)"/>
<path d="M0 0 C1.98567708 0.09765625 3.97135417 0.1953125 5.95703125 0.29296875 C5.95703125 0.95296875 5.95703125 1.61296875 5.95703125 2.29296875 C6.94703125 2.62296875 7.93703125 2.95296875 8.95703125 3.29296875 C4.33703125 3.29296875 -0.28296875 3.29296875 -5.04296875 3.29296875 C-2.04296875 0.29296875 -2.04296875 0.29296875 0 0 Z " fill="#090C11" transform="translate(222.04296875,89.70703125)"/>
<path d="M0 0 C1.9375 0.8125 1.9375 0.8125 4 2 C4.33 2.99 4.66 3.98 5 5 C5.99 5.33 6.98 5.66 8 6 C8 6.66 8 7.32 8 8 C8.66 8 9.32 8 10 8 C10 8.66 10 9.32 10 10 C6.82028869 8.62442924 4.95149011 7.10041354 2.75 4.4375 C1.96882813 3.50744141 1.96882813 3.50744141 1.171875 2.55859375 C0 1 0 1 0 0 Z " fill="#FFFFFF" transform="translate(421,77)"/>
<path d="M0 0 C7.42857143 1 7.42857143 1 11 2 C11 2.66 11 3.32 11 4 C7.86650268 5.04449911 7.01031744 4.93423645 4 4 C4 3.34 4 2.68 4 2 C2.35 2.33 0.7 2.66 -1 3 C-0.67 2.01 -0.34 1.02 0 0 Z " fill="#FFFFFF" transform="translate(570,75)"/>
<path d="M0 0 C1.32 0.33 2.64 0.66 4 1 C3.67 2.65 3.34 4.3 3 6 C1.35 6 -0.3 6 -2 6 C-1.34 4.02 -0.68 2.04 0 0 Z " fill="#FFFFFF" transform="translate(474,78)"/>
<path d="M0 0 C2.1953125 3.9453125 C2.13020833 5.96354167 2.06510417 7.98177083 2 10 C1.01 10 0.02 10 -1 10 C-1.125 2.25 -1.125 2.25 0 0 Z " fill="#323842" transform="translate(105,58)"/>
<path d="M0 0 C2.31 0 4.62 0 7 0 C7 0.99 7 1.98 7 3 C4.03 3 1.06 3 -2 3 C-1.34 2.67 -0.68 2.34 0 2 C0 1.34 0 0.68 0 0 Z " fill="#282D35" transform="translate(50,57)"/>
<path d="M0 0 C0.53625 0.2475 1.0725 0.495 1.625 0.75 C-1.375 2.75 -1.375 2.75 -4.375 2.75 C-4.705 4.07 -5.035 5.39 -5.375 6.75 C-6.695 6.42 -8.015 6.09 -9.375 5.75 C-7.58488403 2.16976807 -4.04516002 -0.42580632 0 0 Z " fill="#11141F" transform="translate(315.375,38.25)"/>
<path d="M0 0 C0.66 0.99 1.32 1.98 2 3 C1.3203125 5.69921875 1.3203125 5.69921875 0.125 8.6875 C-0.26429688 9.68136719 -0.65359375 10.67523438 -1.0546875 11.69921875 C-1.52261719 12.83810547 -1.52261719 12.83810547 -2 14 C-3.21065165 10.36804504 -2.62784815 8.93468371 -1.5625 5.3125 C-1.27503906 4.31863281 -0.98757813 3.32476562 -0.69140625 2.30078125 C-0.46324219 1.54152344 -0.23507812 0.78226562 0 0 Z " fill="#FFFFFF" transform="translate(561,67)"/>
<path d="M0 0 C0.66 0.66 1.32 1.32 2 2 C1.06027344 2.18175781 1.06027344 2.18175781 0.1015625 2.3671875 C-0.71570313 2.53476562 -1.53296875 2.70234375 -2.375 2.875 C-3.18710938 3.03742187 -3.99921875 3.19984375 -4.8359375 3.3671875 C-7.18673923 3.86658932 -7.18673923 3.86658932 -9 6 C-9 4.68 -9 3.36 -9 2 C-5.54754176 -0.30163882 -4.05261287 -0.34490322 0 0 Z " fill="#0B0F1B" transform="translate(118,51)"/>
<path d="M0 0 C1.32 0.66 2.64 1.32 4 2 C4 2.66 4 3.32 4 4 C3.34 4 2.68 4 2 4 C1.67 5.32 1.34 6.64 1 8 C-1.125 3.375 -1.125 3.375 0 0 Z " fill="#FFFFFF" transform="translate(398,40)"/>
<path d="M0 0 C2.24973447 -0.054138 4.49984383 -0.09285491 6.75 -0.125 C8.00296875 -0.14820313 9.2559375 -0.17140625 10.546875 -0.1953125 C13.72820492 -0.01537302 15.36521896 0.31001418 18 2 C13.25 3.125 13.25 3.125 11 2 C9.12943209 1.7724985 7.25314042 1.59037189 5.375 1.4375 C4.37210937 1.35371094 3.36921875 1.26992188 2.3359375 1.18359375 C1.56507813 1.12300781 0.79421875 1.06242187 0 1 C0 0.67 0 0.34 0 0 Z " fill="#15181F" transform="translate(374,36)"/>
<path d="M0 0 C3.35620271 1.38877354 5.07298728 2.91677965 7 6 C7 6.66 7 7.32 7 8 C6.01 8 5.02 8 4 8 C0 2.74285714 0 2.74285714 0 0 Z " fill="#FFFFFF" transform="translate(480,28)"/>
<path d="M0 0 C-3.42346555 3.14958831 -6.44262737 3.56179109 -11 4 C-8.94006922 -0.11986157 -4.11800376 -1.37266792 0 0 Z " fill="#FFFFFF" transform="translate(551,88)"/>
<path d="M0 0 C0.66 0 1.32 0 2 0 C2 0.66 2 1.32 2 2 C4.475 2.99 4.475 2.99 7 4 C7 4.66 7 5.32 7 6 C4.03824877 5.38722388 2.61941217 4.74627478 0 3 C-0.33 3.66 -0.66 4.32 -1 5 C-0.67 3.35 -0.34 1.7 0 0 Z " fill="#FFFFFF" transform="translate(519,85)"/>
<path d="M0 0 C1.32 0.66 2.64 1.32 4 2 C0.535 4.97 0.535 4.97 -3 8 C-2.74438677 5.6568787 -2.40729228 3.32156597 -2 1 C-1.34 0.67 -0.68 0.34 0 0 Z " fill="#FFFFFF" transform="translate(435,52)"/>
<path d="M0 0 C0.33 0 0.66 0 1 0 C1 1.65 1 3.3 1 5 C-0.875 5.625 -0.875 5.625 -3 6 C-3.66 5.34 -4.32 4.68 -5 4 C-4.67 3.01 -4.34 2.02 -4 1 C-3.01 1 -2.02 1 -1 1 C-0.67 0.67 -0.34 0.34 0 0 Z " fill="#1A1C23" transform="translate(163,50)"/>
<path d="M0 0 C0.33 0 0.66 0 1 0 C1.06058594 0.67546875 1.12117188 1.3509375 1.18359375 2.046875 C1.26738281 2.93890625 1.35117187 3.8309375 1.4375 4.75 C1.51871094 5.63171875 1.59992188 6.5134375 1.68359375 7.421875 C1.96238465 9.69350452 2.38790577 11.79851823 3 14 C2.01 14 1.02 14 0 14 C0 9.38 0 4.76 0 0 Z " fill="#FFFFFF" transform="translate(502,96)"/>
<path d="M0 0 C1.2065625 0.0309375 1.2065625 0.0309375 2.4375 0.0625 C2.1075 0.7225 1.7775 1.3825 1.4375 2.0625 C-0.48828125 2.546875 -0.48828125 2.546875 -2.875 2.8125 C-4.04482422 2.95945312 -4.04482422 2.95945312 -5.23828125 3.109375 C-7.86383568 3.05642264 -9.32723757 2.39240442 -11.5625 1.0625 C-10.263125 1.083125 -8.96375 1.10375 -7.625 1.125 C-6.27084367 1.14649454 -4.91493917 1.13398199 -3.5625 1.0625 C-2.5625 0.0625 -2.5625 0.0625 0 0 Z " fill="#1A1D26" transform="translate(63.5625,69.9375)"/>
<path d="M0 0 C1.32 0.66 2.64 1.32 4 2 C4 2.66 4 3.32 4 4 C3.34 4 2.68 4 2 4 C1.67 5.32 1.34 6.64 1 8 C-1.125 3.375 -1.125 3.375 0 0 Z " fill="#FFFFFF" transform="translate(609,38)"/>
<path d="M0 0 C5.66153846 2.46153846 5.66153846 2.46153846 7.375 5.1875 C7.58125 5.785625 7.7875 6.38375 8 7 C4.21388773 6.45912682 2.44599233 4.88277668 0 2 C0 1.34 0 0.68 0 0 Z " fill="#FFFFFF" transform="translate(472,22)"/>
<path d="M0 0 C4 4.625 4 4.625 4 8 C3.01 7.34 2.02 6.68 1 6 C0.01 6.495 0.01 6.495 -1 7 C-0.67 4.69 -0.34 2.38 0 0 Z " fill="#FFFFFF" transform="translate(429,75)"/>
<path d="M0 0 C0.66 0 1.32 0 2 0 C0.6062718 4.43458973 -1.60582235 6.87378374 -5 10 C-3.66749209 6.4124787 -2.169283 3.1635377 0 0 Z " fill="#FFFFFF" transform="translate(489,73)"/>
<path d="M0 0 C0.66 0.66 1.32 1.32 2 2 C1.9765625 4.8203125 1.9765625 4.8203125 1.625 8.125 C1.51414062 9.22070312 1.40328125 10.31640625 1.2890625 11.4453125 C1.19367188 12.28835937 1.09828125 13.13140625 1 14 C0.67 14 0.34 14 0 14 C-0.06058594 13.38511719 -0.12117188 12.77023438 -0.18359375 12.13671875 C-0.26738281 11.32847656 -0.35117187 10.52023438 -0.4375 9.6875 C-0.51871094 8.88699219 -0.59992188 8.08648437 -0.68359375 7.26171875 C-0.95265693 4.83912821 -0.95265693 4.83912821 -2 2 C-1.34 1.34 -0.68 0.68 0 0 Z " fill="#292F39" transform="translate(346,57)"/>
<path d="M0 0 C1.36511719 0.29197266 1.36511719 0.29197266 2.7578125 0.58984375 C3.45648438 0.74582031 4.15515625 0.90179688 4.875 1.0625 C4.875 1.3925 4.875 1.7225 4.875 2.0625 C1.245 2.0625 -2.385 2.0625 -6.125 2.0625 C-6.455 1.4025 -6.785 0.7425 -7.125 0.0625 C-4.4030754 -1.2984623 -2.9418043 -0.64116248 0 0 Z " fill="#0D131B" transform="translate(96.125,90.9375)"/>
<path d="M0 0 C1.98000002 0.495 1.98000002 0.495 4 1 C3.67 2.65 3.34 4.3 3 6 C1.68 5.34 0.36 4.68 -1 4 C-0.67 2.68 -0.34 1.36 0 0 Z " fill="#FFFFFF" transform="translate(464,85)"/>
<path d="M0 0 C0.33 0 0.66 0 1 0 C1.18451025 9.41002278 1.18451025 9.41002278 0 14 C-0.66 14 -1.32 14 -2 14 C-2.04254356 12.00045254 -2.04080783 9.99958364 -2 8 C-1.67 7.67 -1.34 7.34 -1 7 C-0.63239269 4.67182036 -0.29758419 2.3381615 0 0 Z " fill="#171C25" transform="translate(129,78)"/>
<path d="M0 0 C0.99 0.33 1.98 0.66 3 1 C-0.465 3.97 -0.465 3.97 -4 7 C-4.66 6.34 -5.32 5.68 -6 5 C-2.25 2 -2.25 2 0 2 C0 1.34 0 0.68 0 0 Z " fill="#FFFFFF" transform="translate(481,83)"/>
<path d="M0 0 C0.99 0 1.98 0 3 0 C1.60667426 3.36720387 0.0210714 4.9859524 -3 7 C-1.125 1.125 -1.125 1.125 0 0 Z " fill="#FFFFFF" transform="translate(610,82)"/>
<path d="M0 0 C0.928125 0.5259375 0.928125 0.5259375 1.875 1.0625 C2.57625 1.371875 3.2775 1.68125 4 2 C4.66 1.67 5.32 1.34 6 1 C6.33 2.65 6.66 4.3 7 6 C6.34 6 5.68 6 5 6 C5 5.34 5 4.68 5 4 C3.35 4 1.7 4 0 4 C-0.33 3.34 -0.66 2.68 -1 2 C-0.67 1.34 -0.34 0.68 0 0 Z " fill="#FFFFFF" transform="translate(429,80)"/>
<path d="M0 0 C1.60031344 3.20062687 0.03173691 5.72271806 -1 9 C-1.66 8.67 -2.32 8.34 -3 8 C-3.36923077 3.44615385 -3.36923077 3.44615385 -1.5 1.1875 C-1.005 0.795625 -0.51 0.40375 0 0 Z " fill="#FFFFFF" transform="translate(615,74)"/>
<path d="M0 0 C0.78375 0.33 1.5675 0.66 2.375 1 C4.84332497 2.11866511 4.84332497 2.11866511 7 2 C7 2.66 7 3.32 7 4 C5.35 4.33 3.7 4.66 2 5 C1.01 3.68 0.02 2.36 -1 1 C-0.67 0.67 -0.34 0.34 0 0 Z " fill="#FFFFFF" transform="translate(459,61)"/>
<path d="M0 0 C0.66 0.33 1.32 0.66 2 1 C1.67 1.99 1.34 2.98 1 4 C1.39397335 6.63804589 1.39397335 6.63804589 2 9 C1.34 9 0.68 9 0 9 C-1.3950848 6.70221327 -2.07438619 5.5207033 -1.6875 2.8125 C-1 1 -1 1 0 0 Z " fill="#1C1F29" transform="translate(360,40)"/>
<path d="M0 0 C0.66 0.33 1.32 0.66 2 1 C-1.465 3.97 -1.465 3.97 -5 7 C-5.66 6.67 -6.32 6.34 -7 6 C-4.69 4.02 -2.38 2.04 0 0 Z " fill="#FFFFFF" transform="translate(433,24)"/>
<path d="M0 0 C0.99 0 1.98 0 3 0 C1.60667426 3.36720387 0.0210714 4.9859524 -3 7 C-1.125 1.125 -1.125 1.125 0 0 Z " fill="#FFFFFF" transform="translate(610,82)"/>
<path d="M0 0 C0.33 0.66 0.66 1.32 1 2 C1.66 2 2.32 2 3 2 C3 2.66 3 3.32 3 4 C0.69 4 -1.62 4 -4 4 C-4.33 3.34 -4.66 2.68 -5 2 C-3.35 2 -1.7 2 0 2 C0 1.34 0 0.68 0 0 Z " fill="#FFFFFF" transform="translate(534,89)"/>
<path d="M0 0 C1.98 0 3.96 0 6 0 C5.67 1.32 5.34 2.64 5 4 C4.01 4 3.02 4 2 4 C2 3.34 2 2.68 2 2 C1.34 2 0.68 2 0 2 C0 1.34 0 0.68 0 0 Z " fill="#FFFFFF" transform="translate(480,65)"/>
<path d="M0 0 C3.465 1.485 3.465 1.485 7 3 C7 3.66 7 4.32 7 5 C3.64404172 4.40072174 1.62198774 3.15377564 -1 1 C-0.67 0.67 -0.34 0.34 0 0 Z " fill="#1B1E28" transform="translate(119,50)"/>
<path d="M0 0 C0 0.66 0 1.32 0 2 C-0.66 2 -1.32 2 -2 2 C-2 2.66 -2 3.32 -2 4 C-2.99 4 -3.98 4 -5 4 C-5.33 2.68 -5.66 1.36 -6 0 C-2.25 -1.125 -2.25 -1.125 0 0 Z " fill="#1D2029" transform="translate(367,51)"/>
</svg>